<?xml version="1.0" encoding="UTF-8" standalone="no"?>
<!-- Created with Inkscape (http://www.inkscape.org/) -->

<svg
   xmlns:dc="http://purl.org/dc/elements/1.1/"
   xmlns:cc="http://creativecommons.org/ns#"
   xmlns:rdf="http://www.w3.org/1999/02/22-rdf-syntax-ns#"
   xmlns:svg="http://www.w3.org/2000/svg"
   xmlns="http://www.w3.org/2000/svg"
   xmlns:sodipodi="http://sodipodi.sourceforge.net/DTD/sodipodi-0.dtd"
   xmlns:inkscape="http://www.inkscape.org/namespaces/inkscape"
   width="5.6444445mm"
   height="5.6444445mm"
   viewBox="0 0 20 20"
   id="svg3608"
   version="1.1"
   inkscape:version="0.91 r13725"
   sodipodi:docname="anomaly.svg">
  <defs
     id="defs3610" />
  <sodipodi:namedview
     id="base"
     pagecolor="#ffffff"
     bordercolor="#666666"
     borderopacity="1.0"
     inkscape:pageopacity="0.0"
     inkscape:pageshadow="2"
     inkscape:zoom="0.35"
     inkscape:cx="-17.85714"
     inkscape:cy="170"
     inkscape:document-units="px"
     inkscape:current-layer="layer1"
     showgrid="false"
     fit-margin-top="0"
     fit-margin-left="0"
     fit-margin-right="0"
     fit-margin-bottom="0"
     inkscape:window-width="1309"
     inkscape:window-height="744"
     inkscape:window-x="57"
     inkscape:window-y="24"
     inkscape:window-maximized="1" />
  <metadata
     id="metadata3613">
    <rdf:RDF>
      <cc:Work
         rdf:about="">
        <dc:format>image/svg+xml</dc:format>
        <dc:type
           rdf:resource="http://purl.org/dc/dcmitype/StillImage" />
        <dc:title></dc:title>
      </cc:Work>
    </rdf:RDF>
  </metadata>
  <g
     inkscape:label="Layer 1"
     inkscape:groupmode="layer"
     id="layer1"
     transform="translate(-392.85714,-682.3622)">
    <path
       inkscape:connector-curvature="0"
       style="fill:#646464"
       d="m 412.85714,690.69553 0,3.33334 -3.38333,0 c -0.27722,1.13333 -0.925,2.16666 -1.94167,3.1 -1.01666,0.93333 -2.01889,1.58333 -3.00833,1.95 l 0,3.28333 -3.33333,0 0,-3.28333 c -1.55556,-0.3 -2.71112,-0.86945 -3.46667,-1.70834 -0.75556,-0.83889 -1.3,-1.95222 -1.63278,-3.34166 l -3.23389,0 0,-3.33334 3.23389,0 c 0.16611,-0.66666 0.36667,-1.24722 0.6,-1.74166 0.23333,-0.49445 0.54111,-0.97223 0.925,-1.43334 0.38278,-0.46111 0.87167,-0.84444 1.46611,-1.15 0.59445,-0.30555 1.29722,-0.53055 2.10834,-0.675 l 0,-3.33333 3.33333,0 0,3.33333 c 0.6,0.22223 1.22778,0.55611 1.88333,1 0.65611,0.44445 1.28111,1.03056 1.875,1.75834 0.59445,0.72777 0.99167,1.475 1.19167,2.24166 l 3.38333,0 0,0 0,0 0,0 z m -8.33333,3.33334 0,3.43333 c 1.65555,-0.53333 2.77278,-1.67778 3.35055,-3.43333 l -3.35055,0 0,-3.33334 3.33333,0 c -0.27778,-0.82222 -0.69944,-1.53055 -1.26666,-2.125 -0.56612,-0.59389 -1.25556,-1.01944 -2.06667,-1.275 l 0,3.4 -3.33333,0 0,-3.38333 c -0.83334,0.26667 -1.55556,0.69778 -2.16667,1.29167 -0.61111,0.59444 -1.05,1.29166 -1.31611,2.09166 l 3.48278,0 0,3.33334 -3.49945,0 c 0.26611,0.81111 0.70778,1.51944 1.32445,2.125 0.61722,0.60611 1.34166,1.04166 2.175,1.30833 l 0,-3.43333 3.33333,0 0,0 z"
       id="Fill-89" />
  </g>
</svg>
