<svg xmlns="http://www.w3.org/2000/svg" width="396.8" height="104.55" viewBox="0 0 372.00002 98.015287"><g transform="translate(-104.714 -374.783)"><path fill="#169ad4" fill-opacity=".31" d="M469.438 472.798l-359.227-.812-.497-75.203 60.73 36.4 60.242-18.962 58.915 22.871 59.969-22.87 61.282.036 59.17 20.58-1.136-.045z"/><path stroke="#169ad4" stroke-width="5" fill="none" d="M111.714 398.783l61.396 35.88 59.107-19.463 60.324 22.61 58.915-23.924h60.47l60.78 20.421"/><circle cx="111.714" cy="400.783" r="6" fill="#fff" stroke="#4a4a4a" stroke-width="2"/><circle cx="171.714" cy="433.783" r="6" fill="#fff" stroke="#4a4a4a" stroke-width="2"/><circle cx="228.714" cy="416.783" r="6" fill="#fff" stroke="#4a4a4a" stroke-width="2"/><circle cx="290.714" cy="436.783" r="6" fill="#fff" stroke="#4a4a4a" stroke-width="2"/><circle cx="347.714" cy="415.783" r="6" fill="#fff" stroke="#4a4a4a" stroke-width="2"/><circle cx="410.714" cy="415.783" r="6" fill="#fff" stroke="#4a4a4a" stroke-width="2"/><circle cx="469.714" cy="432.783" r="6" fill="#fff" stroke="#4a4a4a" stroke-width="2"/><path d="M111.214 471.283v-96M171.214 471.283v-96M229.214 471.283v-96M291.214 471.283v-96M348.214 471.283v-96M411.214 471.283v-96M470.214 471.283v-96" stroke="#979797" stroke-linecap="square" stroke-dasharray="4"/></g></svg>