<?xml version="1.0" encoding="UTF-8" standalone="no"?>
<!-- Created with Inkscape (http://www.inkscape.org/) -->

<svg
   xmlns:dc="http://purl.org/dc/elements/1.1/"
   xmlns:cc="http://creativecommons.org/ns#"
   xmlns:rdf="http://www.w3.org/1999/02/22-rdf-syntax-ns#"
   xmlns:svg="http://www.w3.org/2000/svg"
   xmlns="http://www.w3.org/2000/svg"
   xmlns:sodipodi="http://sodipodi.sourceforge.net/DTD/sodipodi-0.dtd"
   xmlns:inkscape="http://www.inkscape.org/namespaces/inkscape"
   width="3.9511111mm"
   height="4.4450002mm"
   viewBox="0 0 14 15.750001"
   id="svg3505"
   version="1.1"
   inkscape:version="0.91 r13725"
   sodipodi:docname="IOT-security.svg">
  <defs
     id="defs3507" />
  <sodipodi:namedview
     id="base"
     pagecolor="#ffffff"
     bordercolor="#666666"
     borderopacity="1.0"
     inkscape:pageopacity="0.0"
     inkscape:pageshadow="2"
     inkscape:zoom="0.35"
     inkscape:cx="24.85714"
     inkscape:cy="-106.41071"
     inkscape:document-units="px"
     inkscape:current-layer="layer1"
     showgrid="false"
     fit-margin-top="0"
     fit-margin-left="0"
     fit-margin-right="0"
     fit-margin-bottom="0"
     inkscape:window-width="1309"
     inkscape:window-height="744"
     inkscape:window-x="57"
     inkscape:window-y="24"
     inkscape:window-maximized="1" />
  <metadata
     id="metadata3510">
    <rdf:RDF>
      <cc:Work
         rdf:about="">
        <dc:format>image/svg+xml</dc:format>
        <dc:type
           rdf:resource="http://purl.org/dc/dcmitype/StillImage" />
        <dc:title></dc:title>
      </cc:Work>
    </rdf:RDF>
  </metadata>
  <g
     inkscape:label="Layer 1"
     inkscape:groupmode="layer"
     id="layer1"
     transform="translate(-350.14286,-410.20149)">
    <path
       inkscape:connector-curvature="0"
       style="fill:#646464"
       d="m 361.5974,415.45149 1.27273,0 c 0.3483,0 0.64739,0.12906 0.8977,0.38719 0.24988,0.25812 0.37503,0.56656 0.37503,0.92531 l 0,7.875 c 0,0.35875 -0.12515,0.66719 -0.37503,0.92531 -0.25031,0.25813 -0.5494,0.38719 -0.8977,0.38719 l -11.45455,0 c -0.34787,0 -0.64696,-0.12906 -0.89727,-0.38719 -0.2503,-0.25812 -0.37545,-0.56656 -0.37545,-0.92531 l 0,-7.875 c 0,-0.35875 0.12515,-0.66719 0.37545,-0.92531 0.25031,-0.25813 0.5494,-0.38719 0.89727,-0.38719 l 1.27273,0 0,-2.625 c 0,-0.71794 0.25031,-1.33481 0.75091,-1.85062 0.50061,-0.51625 1.09879,-0.77438 1.79455,-0.77438 l 3.81818,0 c 0.69576,0 1.29394,0.25813 1.79497,0.77438 0.50018,0.51581 0.75048,1.13268 0.75048,1.85062 l 0,2.625 0,0 0,0 0,0 z m -6.36363,0 3.81818,0 0,-1.96875 c 0,-0.18375 -0.0615,-0.33906 -0.18455,-0.46637 -0.1226,-0.12644 -0.27363,-0.18988 -0.45182,-0.18988 l -2.54545,0 c -0.17818,0 -0.32879,0.0634 -0.45139,0.18988 -0.12346,0.12731 -0.18497,0.28262 -0.18497,0.46637 l 0,1.96875 0,0 z"
       id="Fill-196" />
  </g>
</svg>
