<?xml version="1.0" encoding="UTF-8" standalone="no"?>
<!-- Created with Inkscape (http://www.inkscape.org/) -->

<svg
   xmlns:dc="http://purl.org/dc/elements/1.1/"
   xmlns:cc="http://creativecommons.org/ns#"
   xmlns:rdf="http://www.w3.org/1999/02/22-rdf-syntax-ns#"
   xmlns:svg="http://www.w3.org/2000/svg"
   xmlns="http://www.w3.org/2000/svg"
   xmlns:sodipodi="http://sodipodi.sourceforge.net/DTD/sodipodi-0.dtd"
   xmlns:inkscape="http://www.inkscape.org/namespaces/inkscape"
   width="4.2333331mm"
   height="4.2333331mm"
   viewBox="0 0 14.999999 14.999999"
   id="svg3444"
   version="1.1"
   inkscape:version="0.91 r13725"
   sodipodi:docname="IOT-devices.svg">
  <defs
     id="defs3446" />
  <sodipodi:namedview
     id="base"
     pagecolor="#ffffff"
     bordercolor="#666666"
     borderopacity="1.0"
     inkscape:pageopacity="0.0"
     inkscape:pageshadow="2"
     inkscape:zoom="0.35"
     inkscape:cx="-23.21429"
     inkscape:cy="-69.642855"
     inkscape:document-units="px"
     inkscape:current-layer="layer1"
     showgrid="false"
     fit-margin-top="0"
     fit-margin-left="0"
     fit-margin-right="0"
     fit-margin-bottom="0"
     inkscape:window-width="1309"
     inkscape:window-height="744"
     inkscape:window-x="57"
     inkscape:window-y="24"
     inkscape:window-maximized="1" />
  <metadata
     id="metadata3449">
    <rdf:RDF>
      <cc:Work
         rdf:about="">
        <dc:format>image/svg+xml</dc:format>
        <dc:type
           rdf:resource="http://purl.org/dc/dcmitype/StillImage" />
        <dc:title></dc:title>
      </cc:Work>
    </rdf:RDF>
  </metadata>
  <g
     inkscape:label="Layer 1"
     inkscape:groupmode="layer"
     id="layer1"
     transform="translate(-398.21429,-447.71935)">
    <path
       inkscape:connector-curvature="0"
       style="fill:#646464"
       d="m 399.46429,458.96935 12.5,0 c 0.34208,0 0.63541,0.12291 0.88166,0.36833 0.24542,0.24625 0.36834,0.54 0.36834,0.88167 l 0,1.25 c 0,0.34166 -0.12292,0.63541 -0.36834,0.88125 -0.24625,0.24583 -0.53958,0.36875 -0.88166,0.36875 l -12.5,0 c -0.34167,0 -0.63542,-0.12292 -0.88125,-0.36875 -0.24584,-0.24584 -0.36875,-0.53959 -0.36875,-0.88125 l 0,-1.25 c 0,-0.34167 0.12291,-0.63542 0.36875,-0.88167 0.24583,-0.24542 0.53958,-0.36833 0.88125,-0.36833 0,0 -0.34167,0 0,0 l 0,0 0,0 z m -0.8625,-1.25 2.15,-9.2375 c 0.0417,-0.18334 0.1375,-0.35625 0.28791,-0.51875 0.14959,-0.16292 0.30792,-0.24375 0.47459,-0.24375 l 8.4,0 c 0.15833,0 0.31458,0.0937 0.46875,0.28083 0.15458,0.18792 0.25208,0.3775 0.29416,0.56917 l 2.15,9.15 -14.22541,0 0,0 0,0 0,0 z m 9.6125,3.75 1.25,0 0,-1.25 -1.25,0 0,0 0,1.25 0,0 z m 2.5,0 1.25,0 0,-1.25 -1.25,0 0,0 0,1.25 0,0 z"
       id="Fill-118" />
  </g>
</svg>
