<?xml version="1.0" encoding="UTF-8" standalone="no"?>
<!-- Created with Inkscape (http://www.inkscape.org/) -->

<svg
   xmlns:dc="http://purl.org/dc/elements/1.1/"
   xmlns:cc="http://creativecommons.org/ns#"
   xmlns:rdf="http://www.w3.org/1999/02/22-rdf-syntax-ns#"
   xmlns:svg="http://www.w3.org/2000/svg"
   xmlns="http://www.w3.org/2000/svg"
   xmlns:sodipodi="http://sodipodi.sourceforge.net/DTD/sodipodi-0.dtd"
   xmlns:inkscape="http://www.inkscape.org/namespaces/inkscape"
   width="4.5155554mm"
   height="4.8380961mm"
   viewBox="0 0 15.999999 17.14286"
   id="svg3692"
   version="1.1"
   inkscape:version="0.91 r13725"
   sodipodi:docname="leak.svg">
  <defs
     id="defs3694" />
  <sodipodi:namedview
     id="base"
     pagecolor="#ffffff"
     bordercolor="#666666"
     borderopacity="1.0"
     inkscape:pageopacity="0.0"
     inkscape:pageshadow="2"
     inkscape:zoom="0.35"
     inkscape:cx="171.57143"
     inkscape:cy="-31.428575"
     inkscape:document-units="px"
     inkscape:current-layer="layer1"
     showgrid="false"
     fit-margin-top="0"
     fit-margin-left="0"
     fit-margin-right="0"
     fit-margin-bottom="0"
     inkscape:window-width="1309"
     inkscape:window-height="744"
     inkscape:window-x="57"
     inkscape:window-y="24"
     inkscape:window-maximized="1" />
  <metadata
     id="metadata3697">
    <rdf:RDF>
      <cc:Work
         rdf:about="">
        <dc:format>image/svg+xml</dc:format>
        <dc:type
           rdf:resource="http://purl.org/dc/dcmitype/StillImage" />
        <dc:title></dc:title>
      </cc:Work>
    </rdf:RDF>
  </metadata>
  <g
     inkscape:label="Layer 1"
     inkscape:groupmode="layer"
     id="layer1"
     transform="translate(-203.42857,-483.79077)">
    <path
       inkscape:connector-curvature="0"
       style="fill:#646464"
       d="m 203.79221,496.64791 15.24412,0 c 0.10667,0 0.1983,0.0357 0.27588,0.10667 0.0776,0.0719 0.11636,0.15524 0.11636,0.25048 l 0,3.92857 -16,0 0,-3.92857 c 0,-0.10477 0.0344,-0.19048 0.10182,-0.25715 0.0679,-0.0667 0.15515,-0.1 0.26182,-0.1 0,0 -0.10667,0 0,0 l 0,0 0,0 z m 3.95685,-5.84285 -1.4114,1.38523 3.08412,3.02905 1.42497,-1.38619 -3.09769,-3.02809 0,0 0,0 0,0 z m 3.51951,-3.44286 -2.16679,2.12809 3.08316,3.02905 2.16775,-2.11476 3.60679,3.38619 0,-10 -10.16727,0 3.47636,3.57143 0,0 0,0 0,0 z m 5.25091,11.42857 1.45455,0 0,-0.71429 -1.45455,0 0,0 0,0.71429 0,0 z"
       id="Fill-161" />
  </g>
</svg>
