<svg xmlns="http://www.w3.org/2000/svg" width="721.205" height="369.569" viewBox="0 0 676.12934 346.47078"><g transform="translate(-13.364 -259.127)"><g fill="#f3f5f5"><path stroke="#979797" d="M13.628 311.48l2.736-1.702 3.915-.667 3.33-1.324 4.594-1.44 3.061-2.186 2.186-1.614-2.961-.333-1.13.34h-2.215l-2.012.529.956-1.838 1.81-1.188-1.347-.449-2.042.694-1.028-1.303.752-1.903 1.478-1.412 3.602-1.968 2.012-.572 2.62-1.498h2.128l2.88-.173 2.59-1.1 1.68-1.961-1.76-.167-2.2.347-2.25.783-1.889-.34-1.13-.63 1.368-1.701-.963-.63 3.401-1.035 4.045-.514 2.454-1.15-.174 1.31 2.012.34 1.665-.173 1.331-2.02-1.6.167-.34-1.731-1.317-.456.796-1.824h2.41l2.713-.348 3.163-1.33 3.118-1.448 4.038-.347 4.045-1.331h5.137l3.69-.521 3.074 1.194 3.799.34 3.395.507 3.227.347h2.366l3.22.804 3.445.636 1.896.695 3.646-.687 2.345.34 2.888-.514 2.93-.804 3.12-.52 1.425.636 2.128-1.382.463 1.954 3.176-1.1 1.766.95 3.633-.463 2.25.983 4.017.167 2.605.869-1.665 1.83 1.535 1.274 4.79-.405 2.67-.45 1.092 1.672.81 1.093 1.375-2.727 3.3-.384 1.889-1.369 1.889 1.137 3.002 1.028 3.156.166 3.806-.333 1.021-1.368 1.875.333-.037 1.838 2.063-1.035 2.655-1.034 1.644-1.542 1.368-1.144-3.118-.513 1.317-2.281 2.686-1.44 1.974-1.304 1.44-2.498 2.057-1.476 2.93-.29h3.734l-1.208 1.563-2.598.862-2.113.289-1.188.745-1.44 1.832-.715 1.692.088 2.07-1.658 1.157 1.896 1.12 2.36-.289 1.83-.173-.695 2.329-.881 1.678 2.324-.05.694-2.179 1.839.283 1.715-1.651 2.05-2.012 2.95 1.086 1.274 1.678-2.584.977-.347 2.07-1.556 1.208-1.78.334-1.658-.514-.687 1.208-2.396-.34-1.542-.347-1.144 1.641-1.715.803-1.521 1.499-1.331 1.215-5.202.34-.515 1.195-1.657 1.201-2.294 1.093-3.517.92-3.588 2.553-2.23 1.889-2.055 2.25-.457 1.31 2.59 1.362-.86 2.033-.528 1.555 3.322-.347 3.067.912 2.302 1.91 2.185.688 1.614 1.15h3.633l.312 1.491-1.208 1.91-.853 1.961-.13 2.684 2.056 1.794 2.866.694 1.736-2.88.681-3.4.637-2.59 2.227-1.369 2.888-.549 2.641-2.192.81-2.88-.05-1.722-1.202-1.15.861-1.304 2.005-1.375 1.39-2.23v-1.664l1.04-1.94 1.608-1.202h2.713l2.179.695 2.822-.116 1.324 1.498 2.482.861-.123 1.896-.804 2.315-1.903 2.012 2.642.174 1.94.984 3.524-1.549 2.36-1.954 1.62-1.606 1.041 2.365.478 2.864.571 2.823-1.577 1.794 1.662 1.364 1.324 1.801 2.301.282.97 1.498 2.237.804-.702 1.498 1.665 1.208-.521 1.845-1.73 1.658-3.495.694-2.005.348-.81.984-1.723 1.419-2.403.347-4.443.354-3.465-.695-3.987.695-2.237 1.794-2.778 1.151-3.047 1.788-2.416 1.562-1.158 1.852h1.933l1.709-1.743 3.053-1.542 3.01-1.39 3.33-.166h2.525l-.92 1.382-1.592 1.318-2.924.03 2.04 2.055.782 2.513 2.482 1.33 2.46.167-1.323 2.019h-2.714l-2.12.854-2.7 1.91-1.266.521-.116-1.947 1.158-1.556 3.156-.977-1.332-1.49-3.285 1.447-1.903 1.215-2.301 1.035-2.316.347-2.641.81-1.158 1.794-1.324 1.897-.058 2.67h-2.056l-2.28.462-2.454.29 1.303 1.96h-2.968l-.52 1.897-1.542 1.613h-1.954l-.116 1.931-1.318 2.598-.534-2.728-1.498-.558-.231 2.707-.535 2.258.405 2.307-1.1 2.251-2.308 1.389-2.243 1.215-2.7 1.635-1.375 1.896-3.35 2.026-1.736 1.845-.977 2.771.368 3.429.52 3.285.197 3.155-.97 2.67-1.679 2.155-.687-1.832-.868-1.895-.868-2.02v-3.003l-.116-2.692-1.201-1.368-2.107-.52-1.875 1.2-.637-2.177-2.533-.522-3.104.181-3.033-.16-1.542.674 1.49 3.112-2.402-.507h-2.672l-1.541-1.137-3.068.282-2.484.514-1.889 1.382-2.658 1.028-2.222 1.903-1.44 2.54.347 2.771-1.354 1.389-.347 2.88-.667 3.054-.514 3.047.695 2.583 1.91 4.017 1.215 1.679 2.655 1.034 2.982-.174 2.931-.766 2.135-1.252 1.73-2.996 1.504-2.83 2.417.348 2.7-1.041 2.09.687-1.687 2.403-.97 3.241-1.716 2.598-.739 2.83.008 2.576 1.657 2.222 3.04-.687 2.771.115 3.235 1.65.006 3.25-1.1 3.465-.81 3.401 1.382 3.126 2.686 1.845 2.155 1.692 2.57-1.035 2.36-1.041 2.315.97 1.729 2.185 1.389 1.903.803-2.764 2.223-1.961 2.692-2.628 2.815-2.243 3.17-2.236 1.847-.515-.196 1.824-1.427 1.628-.282 2.591.449 2.707 1.607-1.151-.269-2.36.854-1.729 2.053-1.403 2.505.29 1.505 2.141 2.54.97 2.141-1.331 1.368 1.62 2.982-.115 2.461-.97 2.867 1.516 2.07.52.521 2.432 2.36 1.02 2.365 2.193 2.026 2.179 1.498 2.25 2.077.34 2.924.173 3.002-.347 2.345.978 3.061 1.67v2.186l2.019 3.105.868 2.808.81 2.888-2.54 2.199 1.383 1.15 2.577-.513 2.532.867-1.324 2.302 2.75-.854 3.582.34 3.581 2.026.188 2.764 2.005-.688h3.003l2.547.528h3.11l2.638 1.437 2.07 1.606 3.105 1.144 2.54 1.158 1.816 2.829.47 3.444-.52 4.378-1.672 1.788-2.127 3.58-1.556 1.594-1.208 3.24-1.594-.346-.571 1.824v3.755l.52 1.875v3.06l-.462 3.446-.746 3.401-.81 3.646-1.671 1.68-1.39 3.284-1.085 1.6-3.14.326-3.104.63-2.547 1.671-2.128 1.903-2.771 1.368-1.64 1.632.984 2.938.5 2.815-.522 2.706-2.012 2.308v2.468l-1.888.948-1.08-1.151-.86 2.243-.521 1.369-.174 2.07-.493 2.17-1.49 2.353-2.295 1.035-3.15.347-2.684.245-1.716-1.729-1.317-.086.803 1.484 1.26 1.433 1.671 1.042 1.15 2.59.399 1.86-1.02 2.07-1.499.86-3.118.869h-3.836l-1.33.31.63 1.736.81 2.488-.326 1.866-2.474-.116-3.316-.571.514 1.896.695 2.417 2.46.167-1.143 1.483.166 2.193-.527 1.889-1.318 1.209-1.548 1.671.636 2.019 2.02 1.729 2.777.52v1.847l-1.715 1.259-.862 1.896-.289 1.548-1.208 2.186 1.027 1.318.978 2.242-1.969.325 1.137 1.715 2.605-.687 1.201 2.172 2.714 1.388 2.794 1.1-1.824 1.498-3.119.109h-3.118l-1.91-1.6-.855-2.055-2.157-.862-1.484-.854-1.593-2.25-1.947-1.383-1.94-.455-.456-2.158-1.419-1.123-.34-2.54-1.26-.674-.347-2.076-1.535-1.02v-1.774l-1.44-.464-.977-2.12 1.817-.854.876 1.715 1.042-1.657-1.015-2.36-.622-3.104-.174-2.236-.68-2.301h-1.31l-.522 1.613-1.678.694-.116-2.865V564.596l-.347-2.186-1.505-1.447-.174-1.774.388-3.233.52-3.676.58-2.12.52-2.924.174-3.756-1.426-2.032-.5-1.76v-3.299l.348-3.394-.348-4.34-.333-3.344-.463-2.887.674-4.403-.232-3.798-1.013-3.575-.854-1.375-.167-2.012-1.144-.464-1.831-1.317-2.128-1.368-1.548-1.215-1.542-1.426-2.05-.334-1.613-1.78-1.6-1.563-.803-2.815-1.157-1.73-1.205-1.79-1.723-2.374-1.171-1.498.52-1.672-1.143-1.324-1.158-2.23-1.028-2.076-1.556-2.192-1.678-2.193-1.787-1.593v-2.59l-.116-1.875 1.903-2.635 1.324-2.005-1.903-1.671.348-4.494 1.637-2.815 2.062-3.003 2.62-2.359 1.433-2.475-.166-1.882v-4.429l-.68-2.635-.753-1.664-.81-1.606-1.239-1.195-1.708.463-1.55 1.433.117 1.831-1.817-.174-1.556-1.041-2.128-1.144-1.845-.694-1.644-1.651-1.715-.984-2.063-2.135-.167-2.634-1.305-2.855-1.157-1.845-2.649-1.774-1.042-2.83-2.924-1.157-2.7-1.549-1.323-1.092-3.207-.283-2.78.399-3.033 1.736-2.808-.34-3.33-1.1-2.25-.977-2.359-1.671-2.388-1.433-.695-1.253-2.128-.52-1.831-1.666-1.773-1.722-.695-2.431.442-2.829-.145-2.843-1.498-2.244-1.26-1.715-1.875-1.838-.52-1.736-1.666-1.614.487-2.287-1.686-.783-.687-2.482-1.535-1.028-1.021-2.062-.695-2.309v-1.96l-1.266-1.954-1.477-.34-.977 2.3.079 3.075 1.838.716v2.25l.984 3.4 1.555 2.374v2.815l1.369 2.678 1.426 2.446-1.209 1.041-1.273-1.498-1.208-2.062-1.195-1.491-.231-2.114v-2.07l-2.165-.463-1.998-2.055 1.202-1.593.333-2.236-1.028-1.324-1.549-1.434-.174-3.792-.34-2.301v-2.86l-1.406-1.494-1.954-.456-1.208-1.535-1.383-.29v-3.755l-.636-2.518.636-1.955-1.13-2.041v-2.447l.58-2.468.919-3.813 1.389-3.408 2.72-2.88 2.373-2.461 1.723-2.989.984-2.019.824-3.183 2.743.173.862 2.193 1.034-2.757.637-1.846-.868-2.07-1.123-.115-1.028-1.375-1.954-1.722-.97-.92 1.658-2.076 1.65-.739-1.13-1.549-1.758.116-.58-2.005 1.042-1.671 1.846-2.186.173-2.706-.731-1.49.166-2.527-.05-2.128-1.209-.043-2.519.456v2.706l-1.549 1.954-.52-2.917-.174-2.223-1.787-1.715-2.165-.86-2.401-.675h-2.822l-1.44-1.433-.797-1.02-2.24.644-1.78.456-.515 1.947h-2.641l-3.214 1.215-2.352.52 1.332-2.242 2.192-1.151 2.945-.868 1.954-1.266h-2.88l-3.04.68-2.012 1.896-2.822 1.447-3.118.868-1.897 1.665-3.278 1.447-2.584.92-1.181 1.455-3.7 1.331-3.757 1.658-2.996 1.324-4.683.521M313.457 376.932l1.331-2.887 2.012-2.809 3.135-2.474 2.526-1.723h2.828l2.506-2.076 4.521-1.202 4.276-1.678 3.547-.348H347.957l2.86 1.447 2.633 2.274 1.672 2.192h2.686l2.134 1.614 2.924 1.273h3.17l1.953.803 1.723 1.086.912 2.301h2.815l2.012 1.042 2.635 1.028 2.77-.68-.115-2.012.688-2.41 2.345-.855h2.641l1.376 1.491 2.358.456 2.533 1.491h2.982l3.554-.977h3.213l2.209 1.028h2.794l2.092.919h2.107l1.968-2.519.456-2.597.67-1.329 1.374-2.062-.282-1.787-1.209-1.44.855-1.716-1.65-.694-1.666-.746-1.548.875-2.816.695-1.845-.81-2.164-.695-1.144.623-1.665.919-1.838-1.15-1.382-.92-2.019-.282-.52-2.063-1.318-1.208h-1.889l1.753-1.897-.869-1.6-.97-.97v-1.997l-1.092-.804-1.563 1.151v1.722l-1.021 2.785.347 1.832-1.984.963-.984 1.44.521 2.185-1.76-.506-1.323-.174-.637-1.824-1.253-1.028v-1.774l-1.078-1.94-.868-1.375-1.607-1.194-.514-1.767v-2.641l-1.2-1.112-1.389-.695-1.831-1.034-1.382-1.382-1.368-.457-1.665-.919-1.498-1.715-1.44-1.209-1.484-.52-.861-2.005-1.44.99-.5 2.091 1.368 1.852 1.954 1.15.753 2.078 1.606 1.953h2.52l1.2 1.665 2.403.861 1.883 1.035.81 1.794-1.657-.282-1.62-.984-.457.963.479 2.237-.521 1.497-.92 1.839-2.062 1.164v1.838l-1.76.528-1.548-1.035-1.774-1.041-1.405-.623 1.665-.912 2.482.29 2.729-.515.695-2.063.636-1.49-1.259-1.463-1.549-.797-1.26-1.245-2.163-.957-1.594-.34-1.2-1.787-2.02-1.787-1.896-1.195-.688-1.903-1.895-1.324-1.702-.521-1.664 1.447-2.006 1.021-1.44 1.382-2.025-.521-2.012-.282h-1.528l-.97 1.375.116 2.373-1.137 1.317-2.042.348-1.02.976-1.413 1.093-.84 1.614-.739 1.657.565 1.794-1.143 1.26-1.028 2.07-1.55.738-1.367 1.202-2.417.173-1.73.283-1.548 1.252-1.948-.166-1.252-1.369-.833-1.266-3.06.167-1.73-.334.282-2.757-.507-1.6-.905-1.405 1.658-2.243.513-2.533-.101-3.104-.688-2.216 1.563-1.157 3.445-.521 3.315.166 4.168.392 3.273.96 1.317-2.975v-4.625l-1.62-.977-.348-1.542-2.25-1.035-1.78-.513-1.672-1.825 1.231-1.338 2.852.52 2.469-.172v-1.846l2.518.514 2.077-1.845 1.947-1.035.882-1.903 2.794-1.092 2.86-2.425 2.989-2.019 3.574-.701 2.026-1.28-1.304-2.114v-1.672l-1.26-.803.175-1.73.52-1.419 2.179-.983 1.947-.457-.109 2.41-.926 2.006-.63 1.845.996 1.699 2.005.514 1.035 1.375 2.076-1.215 1.897-.79 1.157 1.158 1.954.347 3.285-1.273 2.475-.695 2.019 1.086 1.896-1.042 1.246-1.73.766-1.729-.52-1.375.694-1.99 1.252-1.961 1.491 1.606 1.548.636.804-1.722-.282-1.368-1.188-.456-.173-1.426 1.555-1.143 3.061.173 2.134-.007 1.824-.514 2.367-.52-1.31-1.093-1.542-.623-2.367.514h-1.946l-1.832.115-2.273.84-2.301-.282-1.723-.868-1.035-1.412v-2.236l-.86-1.216 1.157-1.954 1.497-1.678 1.485-.521 1.33-1.55 1.274-.455-1.034-.92-2.765-.462-2.301.347-1.304 1.39.283 2.083-1.079.354-1.542.81-2.063 1.39-1.67 1.2-.696 1.825.521 1.947 1.498 1.08 2.012.629.065 2.019-1.99 1.048-1.492.63v2.25l.116 2.107-1.188 1.368-1.47.515-1.15.347-.514 1.31-1.556.514-1.144-1.072-.347-1.498-.738-1.614-1.376-1.715-.34-1.606-1.389-1.672-1.042-1.954-1.331 1.375-2.005 1.86-1.303.81h-1.96l-2.347-.688.283-2.396-.745-1.787.34-1.897-1.02-1.984 1.735-1.143 3.698-1.556 1.998-1.267 2.41-.108.687-1.896.694-1.896 1.144-1.665 1.903-2.403 1.607-.81 2.193-1.505 2.25-1.846 2.713-1.736h2.887l2.38-1.778.84.673 2.598-1.787.81 1.144 2.367-.92 2.178-.289.81 1.955 1.274-1.499 1.831.174-.5 1.614 2.019.194 2.526-.174 1.317.848 2.178.173 2.598.47 2.628.167 2.468 1.273 1.773.637 2.519.52 1.426.754.238 2.438-1.433.976-2.713.637-1.788-.688h-1.752l-1.83-.622-1.825-.695-2.903-.282-.572 1.1 1.549.514 2.576.52.34 1.447 1.216 2.418h2.634l.681-1.637 2.54.347 2.59.81.63-1.773.92-1.723 1.49-1.041 2.28.513h1.658l-.34-2.236-1.15-1.273-1.028-1.78 2.583-.521 1.318.861-.27 1.845 1.108 1.658 2.713-.283 1.324-1.723 2.475-.983 2.656-.977 2.229-1.505 1.15 1.592.906 1.274 1.91-1.838 2.757-.348 2.714-.506.82 1.935 1.679-1.375-.643-1.215 2.113-.521 2.366.637h2.482l2.52.289 2.01.687 2.295 1.151 1.607.19v-1.396l-1.556-.695-1.382-.174-1.896-.867-.167-2.251-1.477-.283 1.505-1.294-.174-1.946.521-1.55 1.216-1.33 1.208 1.389 2.063.694 1.62 1.15v1.904l2.165 1.39 1.123 2.372 1.954 1.382 1.953 1.106-.347 2.077-1.382 1.737h-3.901l1.635 2.179 3.227-.362 2.302-.687 1.562-2.418-.463-1.62-.68-1.318 2.532-.52 1.202 1.382 2.201 2.07 2.165.52.81-1.381-2.773-1.022-.861-1.824-2.693-1.386-1.998.282-2.287.174-2.1-.847-.173-1.499-1.26-1.085-1.817-1.209 1.324-1.433 1-1.116.861 1.897 1.202 1.273 2.345.586 1.671-.514-1.657-.869-1.419-1.034 2.584-.174h2.46l2.128.95 2.7.187.615 1.722 1.505 1.042 2.107 1.787.347-1.99-1.49-1.665-1.304-1.31-2.195-1.123-2.294-.347-2.178-.978-1.028-1.44 3.315-.347h4.054l1.6-.507-1.723-1.426 1.882-1.49 2.532-.174 2.707-.521 2.468-.81 2.982.405h1.62l2.019-.637 1.838-1.556 2.128-1.345 2.908.579 1.382.868 2.706.174 1.324.63 4.277-.348h2.366l3.156 1.723 2.738 1.282-1.672 1.21-2.128.97-2.019 1.324-1.034 2.048 3.285-.868h2.128l.687-1.658 2.83-.173 2.937 1.028 2.873-.463 3.524-.174 2.012.963 2.91.912h2.641l3.142-.29-.065-1.316 3.322-.521 2.519.282.92 1.194 3.502.232.926 2.468 2.192.803 2.758 1.614 2.482.622.513-1.933 1.968.427 2.635-.514h2.359l2.352.803 3.01-.347-.984-1.706-1.13-.688 2.644-.282H574.144l2.642.862h3.458l2.952-.058 1.093 1.143 2.758.413 2.903 1.388 3.451.058 4.184-.405 3.836.34 2.989 1.325 3.278 1.092 3.144.284h3.51l4.095.5 2.88-.463 2.75-.174 1.188 1.028 3.8.687-1.44-1.49-1.318-1.144 3.322.29 3.105.173 4.442-.058 2.012.637 3.878.695 3.207.81 1.215 2.338 2.707.984 2.467 1.845 2.417 1.563 2.287 1.215 1.383 1.73-2.424.347-2.99-.463.682 1.47h2.757l2.583-.347 2.332 1.115 1.535 1.535 3.366 2.705-3.503-.34-1.505-.515-1.201.521-1.043 2.026-1.49.463-.804 1.947-1.889.687-2.373-1.041-2.12.245-1.08.405-1.643.303-1.882.283-1.208 1.266.926 1.26 1.041 2.178 1.897.174 1.259 1.201 2.424 1.325 2.063 1.548-1.586 1.491.92 1.498 1.895.81v1.202l-1.549.34.457 1.447.52 1.491-.687 1.867 1.034 1.742-.115 1.624-1.722-.174-3.119-3.149-2.179-1.15-2.07-2.186-2.229-1.65-1.678-2.077-1.549-1.824-1.39-2.352-.513-1.954.905-1.376.348-1.766.173-2.403.97-1.896v-1.368l-1.15-1.484-1.152-1.78-1.6.173.117 2.186-.63 1.896-1.824-.174-1.845-1.433-2.063-.34-2.353-.333-1.15 1.034v2.54l-.687 1.15 1.122.957h1.788l-2.482 1.208h-2.056l-2.049-1.079-2.532-.173-2.077-.283-1.672.463h-3.676l-2.649-.174h-2.012L606.765 302l-.927 2.7-.687 2.019-.34 2.366-.977 1.665-.964 2.127 1.318 1.042h2.699l1.26 1.324 2.062 1.042 1.787-1.889h1.89l1.903 1.216 2.019.166.636 1.15 1.16 1.87 1.774 1.15.796 2.561 1.151 1.658 1.035 1.723 1.15 1.157 1.042 2.547-.97 1.903.637 2.88-.463 2.192-.637 2.36-.977 1.888-.29 1.774-2.712 1.042-2.418-.521-1.476-.347-.348 1.845-1.665.347.912 2.02.015 2.555-.695 1.194 2.938 4.385 1.686 3.133 1.896 1.722 1.67 3.06v1.723l-1.96.52-2.012.457-2.049.34-.854-2.25-.983-2.577-1.665-2.706-2.02-2.134-2.076-3.17-2.185-.804-2.417-.86-1.607.912-1.504 1.375-1.036-2.256-.925-2.178-.623-1.55-2.417-.115-2.302.637-1.157 3.336-.347 2.743 1.555 2.829h2.295l.86 1.484 1.71.34.803-.984 1.31-.174 2.012.348 1.824.521-.977 1.65-1.41 1.042-1.209 1.773-1.027 2.114.347 1.788 1.723 1.208 3.755 1.157 1.375 2.41 2.192 1.332.338 1.988-.457 1.475 1.73 1.6.333 2.77-.34 2.448-1.447 1.961-.174 2.077-1.042 2.359-.861 1.998-2.062 1.215-1.042 2.237-2.012 1.882-3.285-.174-1.665 1.324-2.887.977-2.366.667.174 2.982-.854 3.142-1.202 2.062-1.607.521-1.368-1.498v-2.012l-.636-2.43-1.325-1.151-1.44-2.142-1.845 1.44-.977 2.077-.167 3.43.174 2.54 1.505 2.295 2.192 2.308 2.179 2.345 2.57 2.758.404 2.388 1.202 1.824v1.896l-.694 2.25-1.896 1.722-1.535.573-1.65.289-.175 1.549-1.541 1.953-2.584 1.376-.174-2.468-1.093-2.931-1.208-2.128-.167-2.525-2.222-1.022-2.186.522-2.446.167-1.216-1.665h-1.49v5.617l-.753 2.46 1.157 2.295.637 2.12.861 2.59 1.614 2.527 2.887 1.272 2.243 1.382 1.195 2.152v3.032l.86 3.445 1.216 1.788.116 2.17-1.534-.911-1.89-1.55-1.787-.687-1.614-1.794-1.729-3.003-.803-2.475-.348-1.896-.984-1.838-1.722-2.737-1.209-1.555-1.208-.803-.34-2.295v-2.576l.52-2.424-.173-1.961-.463-2.468-.861-2.482-1.21-1.954-.687-2.655-2.937-2.258-2.367-.984-2.886-.847-1.73-1.042-.688-2.301v-1.875l-.173-2.366-1.31-.97-2.193-1.331-1.73-1.042-1.266-1.072-.86-2.308-2.534-.81h-2.576l-3.388.353-.289 2.179v3.343l-1.317.92-1.998.52-1.324 2.482-1.614 1.498-1.998 1.498-.868 2.236-1.838.521-1.209 2.366-2.597.174v2.482l.687 2.243-.289 3.581.868 2.83.348 2.59-1.151.804-1.202.506-.173 2.475-1.896.637-.978 2.373-2.301-.347-1.158-2.475-1.143-2.468-.174-2.764-1.208-1.426-1.202-1.498-.463-2.649-.34-3.394-1.664-.86-1.21-2.078-1.15-1.433v-2.828l-1.15-2.013-.548-2.271v-1.897l-.514-1.671v-1.318l-.861-1.967-.348-1.78-1.028-.681v2.329l-1.657.52-1.664.688-1.556-.919-1.028-1.896-.868-.984 1.613-1.375.174-1.208-2.54-.81-1.73-.29-1.381-1.825v-1.433l-.869-1.092-3.104-.398-.913.86-2.828-.289-1.679-.463-1.709.695-2.952.347-1.67-.52-3.061-.34-2.873.172-1.961-1.157-1.55-1.961-.976-1.664-1.954.514-3.047.636-2.359-.52-1.368-.855-2.366-1.042-1.549-.52-1.157-2.714-1.383-1.549-1.382-1.382-1.351-1.246h-1.614l-1.875 2.17 1.028 1.44 1.483 2.951 1.795 1.498 1.041 2.179.463 2.482 2.02 2.199.347-1.889.97-1.209.803 1.382.347 2.41 2.366 1.028 2.193-.347 1.556-.694 1.433-1.376 1.273-1.845 1.079-1.484 1.034 2.042 1.036 2.642 1.548 2.062 2.771.405 1.39 1.73 1.556 2.461-1.564 2.141-2.018 1.1-.174 2.917-1.447 2.192-2.077 1.267-1.838 2.584-2.134 1.62h-2.873l-1.498 1.375-1.331 1.968-2.367 1.39-3.806 1.157-2.416.868-1.556 1.549-1.71 1.956-2.829.29-2.475-.63-1.722-1.6-1.158-2.887-1.433-1.375-1.208-3.734-.68-2.526-.92-2.193-1.498-1.208-.637-1.505-1.722-2.077-1.78-1.505-.63-2.076-.34-1.846-.695-2.185-1.845-1.787-1.375-1.267-1.216-2.764-1.664-2.07-1.383-2.127-1.375-2.063-1.498-1.215v-2.077l-1.028 1.549-2.3-.238-.97-2.055-1.086-1.83-.29 1.896 1.26 2.865 2.134 1.39.81 3.51 1.846 1.388.708 3.235 1.672 1.78 1.072 3.17 1.426 2.315 1.266 1.447v3.227l.695 2.836 2.011.92.985 1.67 1.678 2.714.29 2.36 1.33 2.648 2.2.347 1.947 1.896 2.59 1.73.29 2.199 1.382 1.903.572 2.7 2.23 1.367 2.365.58 4.4-1.029 3.256-1.388 3.633-.58 2.23-.86.665 2.681-2.2 4.096-.347 3.567-1.325 1.672-.81 2.474-1.497 2.339-1.39 2.2-1.715 2.41-2.237 2.069-1.729 1.562-1.433.804-1.491 1.318-1.73 3.169-2.423 2.43-.81 2.353-1.274 1.62-1.917.521-.695 1.903-2.026 2.193-1.214 3.111-1.216 2.02.81 2.467.984 1.773-.173 3.04 1.504 3.517.283 2.59v3.916l.636 4.615.463 3.323-1.504 2.648-2.07 1.846-2.243.976-3.242.457-1.324 2.192-1.216 2.36-2.243 1.215-.688 1.49.11 2.057.52 3.233v3.401l-1.042 3.409-2.032 1.488-2.54 1.563-.5 2.359-.695 2.771-1.91 4.27-2.41.694-2.373 5.195-2.185 1.042-2.83 2.886-3.58 1.853h-2.598l-1.896.868-3.453.174-2.93.347-2.404 1.331h-3.574l-1.505-1.845-.29-2.301-.166-2.808-.637-3.734-1.389-2.02-1.555-2.018-1.093-1.903-.847-.681-.521-3.524-.463-3.292-.688-2.706v-2.88l-.507-3.061-1.522-1.369-.637-3.234-1.157-1.613-.688-1.839-.52-2.358-1.499-1.1v-2.54l.804-2.989.289-2.526 1.042-2.192 1.209-3.227 1.483-1.434 1.043-2.828-.747-1.774-.697-1.111-.695-1.896.333-1.672v-1.49l-1.034-1.542-.348-2.707-.52-2.482-1.376-1.208-.983-2.771-1.723-1.216-1.505-1.671-1.317-2.873-1.158-1.563.347-2.642.695-2.59v-1.961l1.215-2.352-.34-2.012-.34-2.178-1.382-1.318-2.02-.868-2.344-.007-2.649.52-1.606-1.967-1.73-2.707-1.671-2.294-1.946.154-2.482.521-1.267 1.787h-5.201l-.637 1.382-2.186.927-1.035.52-2.532-1.381h-3.98l-2.308 1.324-3.279 1.215-2.308-.636-3.22-2.251-2.243-2.076-2.867-1.672-1.678-1.679-2.07-1.324-.166-2.627-1.845-2.366-1.491-1.202-.753-1.563-1.324-2.192-2.07-.167v-6.121l-1.02-.463-.464-1.324.463-1.672 1.042-2.308.348-2.179.694-3.003-.347-3.234v-2.012l-.868-1.555-.29-1.498 1.158-3.466 1.505-4.392 1.497-1.15.985-3.12 1.44-1.786 1.33-1.274.348-2.062 3.183-.869 3.64-2.778 1.787-1.1.514-1.759M598.693 518.392h1.808l2.122-1.731 2.783-1.726 1.943-.651h1.645l1.976-1.244 2.642-.25 2.08-.336 1.779-1.716 1.286-1.493 1.216-1.813.385-2.014 1.596-1.427 1.455.52 1.852-.244-.222-1.65h1.618l.13-1.996 1.563-1.515 1.302-1.981 1.943-.347 1.548-1.427 1.378 1.036.906 2.361 2.13.277 1.682-.39-.217-1.727.998-2.035 1.249-1.948 1.345-1.085 1.765-.912 1.671.26 1.119-1.845 2.02.472 2.626.646 1.378.651 1.808-.52 1.9.216-.592 1.379-1.716 1.21-.515 2.55-1.558 1.428.13 1.514 1.33 1.334 2.55 1.384 1.434 1.509 2.246 1.623 1.737.955 1.368 1.09.993-1.899 1.259-1.373.776-2.34.348-2.165.125-2.339.607-2.512.738-1.644.477-2.074 1.607-2.11 1.297-.907.347 2.589.13 2.512.26 1.808-.216 1.682.472 1.785 1.514-.352 1.318 1.661-.087 2.247-.12 2.122.81 2.518.027 1.795-.39 1.509 1.427 1.118 1.726.473.988.955.862 1.58.473 1.991.26 1.89.25 1.344 2.155-.385-.217 1.877.385 1.938 1.693 1.86.733 1.987 2.122.12-1.634 1.932.325 2.784-.521 1.981-1.021 2.512-1.688 1.732-.255 1.547-1.379 1.715-1.259 2.459-1.476 2.165-2.208 1.33-3.067 2.29-1.036 1.77-1.254 2.122-2.16 2.127-1.297.998-1.259 2.035-1.64 1.644-2.083 1.21h-2.149l-1.552.646-2.99 1.042-1.678.217-1.205-.863h-1.639l-2.024.695h-2.855l-1.47-.347-1.553-.907v-2.333l.478-2.009.13-1.77h-1.292l-.852-.25 1.552-1.72.13-1.731-.5-.75-1.036 1.509-1.325 1.215-.603-.646 1.443-2.257 1.644-1.254 1.167-2.405-1.47.56-2.73 1.432-1.172 1.514-1.639 1.216-.478-2.638-.646-1.601v-1.46l-1.639-.646-1.986-.255-.993-.516-1.634-.39-2.426-.131-2.6.477-2.072.733-2.344.26-2.6.261-2.377 1.26-2.6 1.649-1.904 1.036-2.334.13h-2.43l-2.42.126-2.427.998-1.77 1.167-2.072 1.384-2.334.39-1.042-1.774-1.476-.603-1.118-1.037 1.693-1.91.825-2.024 1.378-.695.39-2.208-.129-3.164.092-2.469-.608-2.6-.26-2.685-.782-1.77 1.379-1.118 1.172-1.215-.386-2.16-1.036-1.476 1.216-2.388.607-1.812.217-1.124"/><path d="M194.3 602.384c-2.3-2.398-8.488-7.459-9.122-7.459-.273 0-.951-1.044-1.508-2.321-.556-1.277-1.805-3.593-2.775-5.146-1.504-2.409-1.65-3.128-.99-4.878.479-1.269.534-2.645.145-3.604-.347-.853-.833-3.096-1.081-4.985-.504-3.843-2.091-5.13-3.668-2.974-.848 1.16-.968.692-.968-3.77 0-2.802-.321-5.293-.714-5.536-.393-.243-.707-1.788-.698-3.435.028-4.916 1.178-8.555 3.158-9.997 3.094-2.254 2.224-7.74-1.37-8.642-2.373-.596-2.282-1.361.276-2.326 2.73-1.031 4.614-4.67 4.03-7.786-.466-2.484-3.936-6.028-5.9-6.028-.917 0-1.027-.616-.638-3.55.695-5.238-1.4-12.612-4.023-14.16-2.338-1.382-2.48-1.992-.582-2.489 3.157-.825 2.71-6.968-.608-8.342-3.32-1.375-6.47.682-6.492 4.241l-.01 1.772-2.07-2.129c-2.526-2.597-3.527-5.343-1.948-5.343 3.193 0 4.38-6.596 1.65-9.161-1.782-1.674-6.455-2.166-7.318-.77-.279.451-1.61-.99-3.133-3.392-1.457-2.298-3.187-4.618-3.844-5.157-2.746-2.254-.824-7.099 3.657-9.219 3.157-1.493 4.83-4.198 4.186-6.765-.49-1.948-1.946-3.748-3.49-4.31-.595-.217-.11-1.123 1.417-2.648 2.096-2.094 2.321-2.73 2.321-6.543 0-2.323-.486-5.388-1.08-6.81-1.33-3.18-.9-3.875.794-1.289l1.256 1.917 1.135-2.39c1.055-2.22 1.349-2.375 4.103-2.157 2.26.179 3.32-.119 4.45-1.25 1.466-1.466 1.485-1.467 1.485-.056 0 1.67.654 1.796 2.462.473.718-.525 1.145-1.409.947-1.964-.548-1.541.759-3.51 2.33-3.51.772 0 2.08.677 2.907 1.504 1.102 1.102 2.047 1.394 3.544 1.095 1.124-.225 2.251-.067 2.51.35.287.466 1.643.584 3.501.305 3.475-.52 6.56.582 7.19 2.57.231.726.85 1.32 1.377 1.32.526 0 2.45 1.66 4.275 3.69 3.292 3.662 3.36 3.695 8.46 4.122 2.827.236 5.533.677 6.012.98.904.572 3.48 5.843 4.492 9.191.444 1.471.264 2.197-.784 3.145-1.837 1.662-.57 3.157 2.675 3.157 2.233 0 2.372.123 1.657 1.46-.75 1.403-.645 1.44 2.82.98 4.156-.551 7.196.872 7.196 3.369 0 1.245.303 1.413 1.846 1.026 1.996-.501 9.63.169 10.904.956.544.337.417 1.29-.418 3.132-1.023 2.257-1.54 2.649-3.497 2.649-2.848 0-6.42 2.852-7.026 5.61-1.305 5.942 5.592 10.882 11.088 7.94 1.628-.87 3.532-4.307 3.532-6.372 0-.952.465-1.464 1.332-1.464.733 0 2.18-.666 3.215-1.48l1.882-1.48v2.582c0 1.866-.756 3.613-2.728 6.302-1.5 2.045-2.936 4.282-3.192 4.97-.255.687-.956 1.25-1.558 1.25-.905 0-1.094 1.162-1.094 6.73 0 7.852-1.102 13.396-3.317 16.685-.869 1.29-1.683 2.651-1.81 3.025-.126.375-1.751.964-3.61 1.31-1.859.348-4.536 1.513-5.95 2.591l-2.569 1.96-1.908-1.814c-2.636-2.507-5.192-3.003-8.176-1.587-7.96 3.777-3.085 16.236 5.219 13.342 2.418-.843 2.794.021 1.027 2.358-.577.762-1.049 1.99-1.049 2.727 0 .995-.352 1.228-1.368.905-1.68-.533-1.898-.194-3.261 5.067-.599 2.31-1.631 4.602-2.295 5.093-1.438 1.064-7.09 1.195-7.719.178-.605-.98-3.214-.904-3.214.092 0 .444 1.125 2.052 2.5 3.574 1.375 1.522 2.5 3.39 2.5 4.153 0 1.986-2.71 3.608-6.052 3.621-4.023.015-4.898.704-3.976 3.13 1.218 3.204.993 3.51-2.198 3l-2.941-.47.5 2.7c.276 1.485.795 2.808 1.155 2.939 1.245.452.67 4.654-.86 6.283-1.945 2.07-1.38 4.642 1.317 6.002 1.091.55 2.116 1.09 2.277 1.198.161.11-.2.763-.803 1.453-1.848 2.116-2.906 6.33-2.009 8.005.643 1.201.571 1.463-.4 1.463-1.07 0-1.08.155-.11 1.607.673 1.005 1.642 1.524 2.588 1.384.832-.123 1.512.11 1.512.519 0 .408 1.206 1.378 2.679 2.156l2.678 1.414-3.247.032c-2.576.025-3.61-.347-5-1.796zm.091-61.744c1.534 0 3.513-2.974 3.513-5.278 0-3.052-1.837-5.304-4.792-5.875-1.92-.37-2.647-.089-4.465 1.729-1.194 1.194-2.171 2.928-2.171 3.853 0 3.186 3.782 6.713 6.308 5.883.523-.172 1.247-.312 1.607-.312zm26.631-30.052c3.99-3.138 1.504-9.948-3.632-9.948-2.791 0-5.914 2.648-5.914 5.014 0 5.3 5.48 8.132 9.546 4.934zm-23.545-25.23c5.304-2.216 6.313-7.547 2.207-11.653-2.558-2.558-3.88-2.767-8.565-1.355-1.08.325-1.778-.13-2.857-1.862-2.913-4.673-9.815-5.281-13.874-1.222-4.12 4.12-3.457 10.804 1.399 14.105 1.987 1.35 3.144 1.62 5.875 1.365 1.874-.174 4.034-.89 4.814-1.596 1.368-1.238 1.475-1.22 3.262.567 1.016 1.016 2.546 1.984 3.4 2.15.854.166 1.643.346 1.754.4.11.053 1.274-.351 2.585-.899z"/><path style="isolation:auto;mix-blend-mode:normal" d="M377.647 548.675c-.194-.687-.575-3.017-.845-5.178-.358-2.858-1.172-4.86-2.986-7.343-2.204-3.019-2.616-4.303-3.548-11.072-.58-4.211-1.464-8.139-1.965-8.728-.501-.59-1.096-1.714-1.322-2.5-1.074-3.732-2.528-6.984-3.35-7.492-1.304-.806.218-6.96 3.209-12.972 2.106-4.235 2.262-4.942 1.439-6.53-.508-.98-1.096-3.02-1.305-4.536-.708-5.114-1.703-8.457-3.318-11.149-.884-1.473-1.87-2.678-2.19-2.678-.32 0-1.396-1.456-2.39-3.235l-1.808-3.234 1.136-5.234c.624-2.879.924-6.078.665-7.11-.575-2.29-3.868-4.123-6.96-3.872-1.97.16-2.591-.256-4.687-3.143l-2.415-3.327 2.906.39c2.277.305 3.247.078 4.484-1.049.868-.791 2.77-1.65 4.226-1.91 5.023-.896 7.235-6.677 4.087-10.68-1.193-1.516-1.269-1.882-.391-1.882 3.868 0 6.808-3.909 5.509-7.325-2.006-5.277-10.066-3.933-10.066 1.68 0 2.084-.053 2.118-1.588 1.043-3.674-2.574-8.412-.23-8.412 4.162 0 1.464.55 2.859 1.445 3.67.964.872 1.208 1.546.73 2.023-.476.476-1.53-.126-3.166-1.81-4-4.12-9.473-4.298-13.338-.433-1.155 1.155-2.1 2.557-2.1 3.117 0 .66-.775 1.016-2.213 1.016-1.537 0-2.824.653-4.207 2.133-1.72 1.842-2.113 1.988-2.874 1.072-1.395-1.681-4.824-1.295-6.895.776-1.504 1.504-1.764 2.292-1.433 4.332l.404 2.494-1.988-1.296c-3.542-2.31-5.794-4.34-5.794-5.223 0-1.31-5.944-9.201-6.964-9.248-.574-.026-.893-1.169-.893-3.195 0-1.735-.358-3.274-.794-3.42-.547-.182-.408-1.368.446-3.809.788-2.251 1.166-5.108 1.035-7.83-.113-2.357-.22-5.411-.238-6.786-.036-2.8 3.78-11.223 5.99-13.223.78-.706 1.418-1.695 1.418-2.197s.69-1.131 1.533-1.399c2.418-.767 6.95-4.128 7.42-5.502.278-.81 1.168-1.25 2.524-1.25 1.741 0 2.094.292 2.094 1.733 0 1.9 2.977 4.695 5 4.695.68 0 2.083-.666 3.118-1.48 1.979-1.556 2.542-4.949 1.179-7.091-1.24-1.95 2.208-2.128 4.508-.234 2.473 2.036 4.715 2.113 7.09.245 2.129-1.674 3.003-4.496 1.982-6.403-.941-1.759.976-2.277 3.552-.96 2.467 1.263 3.8 1.154 5.875-.479 1.574-1.237 1.94-1.282 3.132-.38.743.563 1.914 1.033 2.603 1.045.689.013 2.452.666 3.918 1.451 1.466.786 3.378 1.429 4.25 1.429 2.394 0 5.058 1.439 5.452 2.944.231.886.992 1.342 2.239 1.342 1.038 0 2.761.452 3.83 1.004 2.781 1.438 5.844.708 5.844-1.394 0-1.55 1.652-3.904 2.73-3.89.266.005 2.091.798 4.056 1.764 1.964.966 4.306 1.767 5.203 1.78 1.358.018 1.515.241.934 1.326-.384.718-.916 3.71-1.183 6.65l-.484 5.345 2.284 1.922c2.462 2.07 4.64 2.394 7.463 1.108 1.954-.89 4.332-5.141 3.74-6.685-.205-.533 0-1.957.456-3.164.62-1.644.625-2.733.02-4.338-.919-2.432-.855-2.465 2.462-1.266 2.248.814 2.522.749 3.773-.893.742-.973 1.548-2.656 1.791-3.74l.442-1.97 1.824 1.435c2.4 1.888 4.683 1.813 7.06-.231 1.401-1.206 1.984-2.44 2.108-4.465.094-1.539.205-2.897.246-3.017.041-.12.79.28 1.662.893 5.764 4.036 12.259-3.68 7.285-8.653-1.602-1.602-2.252-1.787-4.97-1.414-1.757.24-3.314.123-3.556-.268-.237-.383-1.697-.696-3.245-.696-3.765 0-5.673 1.921-5.673 5.714 0 3.046-.3 3.25-3.167 2.16-1.54-.585-1.833-1.146-1.833-3.52 0-6.26-8.35-7.917-10.747-2.133-.463 1.12-.64 2.846-.391 3.836.514 2.05.324 2.114-2.863.962-1.741-.63-2.773-1.771-4.157-4.598-1.013-2.068-1.842-4.548-1.842-5.512 0-2.432-2.069-4.68-4.792-5.205-1.92-.37-2.647-.089-4.465 1.728-1.233 1.234-2.171 2.925-2.171 3.916 0 2.078 2.516 5.509 4.04 5.509.609 0 .898.389.663.893a29.326 29.326 0 0 0-.857 2.142c-.713 2.021-1.428 1.479-3.322-2.521-.982-2.075-2.306-4.204-2.94-4.73-.636-.528-1.156-1.873-1.156-2.99 0-1.717-.743-2.52-4.821-5.202-2.652-1.745-6.07-4.33-7.597-5.746-2.04-1.89-3.014-2.377-3.673-1.83-1.735 1.44-1.71 3.588.064 5.566a74.422 74.422 0 0 1 3.212 3.882c.82 1.08 2.03 1.975 2.689 1.987 1.84.035 3.928 1.918 3.465 3.126-.337.878-1.132.641-4.346-1.294-4.497-2.708-8.993-6.472-8.993-7.529 0-.395-.96-1.214-2.134-1.821-2.024-1.047-2.287-1.008-5.053.738-2.185 1.379-3.665 1.786-5.888 1.621-2.825-.21-3.01-.1-3.781 2.247-.446 1.358-1.255 2.604-1.799 2.77-.543.166-1.71.96-2.595 1.763l-1.607 1.462v-2.838c0-1.562-.377-3.216-.837-3.676-.464-.464-.785-2.519-.72-4.608.133-4.257-.89-5.953-4.914-8.145l-2.457-1.339 3.035-.22c1.67-.12 3.036-.522 3.036-.892s.513-.673 1.14-.673c1.287 0 5.349-2.66 6.217-4.072 1.025-1.666 2.519-.978 3.023 1.393 1.207 5.68 5.264 6.457 9.649 1.848 2.234-2.349 2.828-3.52 2.828-5.578 0-1.432-.44-3.206-.978-3.942-1.496-2.046.058-3.473 2.248-2.065.895.576 2.02.804 2.5.507.48-.297 2.64-.627 4.802-.734 2.16-.107 5.214-.324 6.785-.482 1.572-.159 3.264-.324 3.76-.367 1.1-.097 3.813-4.385 3.3-5.214-.201-.326-.165-1.227.081-2.003.419-1.319.558-1.337 2.172-.28 1.65 1.081 1.762 1.049 2.58-.746.653-1.435.657-2.073.017-2.713-1.487-1.487-.925-1.783 4.064-2.14 6.302-.45 7.315-1.054 4.63-2.754-1.807-1.144-2.679-1.216-7.205-.588-6.023.834-7.728.244-8.18-2.834-.359-2.444.27-3.392 3.842-5.79 3.022-2.03 2.65-3.27-1.2-3.993-2.759-.517-5.36.649-5.36 2.403 0 .68-1.315 2.032-2.927 3.01-3.63 2.204-4.69 4.518-3.148 6.873.61.929 1.582 1.69 2.162 1.69 1.646 0 1.241 1.114-.73 2.012-1.416.645-1.786 1.338-1.786 3.344s-.37 2.7-1.786 3.345c-.982.447-1.786 1.083-1.786 1.413 0 1.706-1.533.17-3.144-3.15-1.001-2.063-2.451-4.553-3.223-5.533l-1.403-1.782-2.047 1.96c-2.609 2.5-5.861 2.693-5.975.354-.043-.883-.164-2.607-.269-3.829-.17-1.988.141-2.383 2.955-3.75 1.73-.84 3.715-1.528 4.412-1.528.837 0 1.76-1.163 2.712-3.419 1.136-2.687 2.454-4.139 6.163-6.785 2.595-1.852 5.312-3.367 6.038-3.367.727 0 1.993-.47 2.814-1.046.822-.576 1.676-.865 1.897-.643.222.222.827.138 1.344-.186 1.534-.961 6.526-1.055 7.095-.133.4.648.766.643 1.565-.02.823-.683 1.12-.665 1.407.085.227.592 2.757 1.28 6.69 1.822 7.21.993 14.184 3.182 14.184 4.454 0 1.52-2.76 1.932-6.429.961-4.787-1.267-7.258-1.24-7.766.084-.303.79.19 1.214 1.782 1.532 1.583.317 2.402 1.015 2.913 2.48.545 1.564 1.16 2.038 2.64 2.038 1.062 0 2.292-.36 2.734-.803.57-.57 1.41-.59 2.902-.071 1.961.684 2.173.576 3.238-1.657 1.048-2.198 1.34-2.356 3.67-1.978 2.294.372 2.535.252 2.586-1.29.031-.935.219-1.299.417-.808.535 1.325 2.664 1.084 4.722-.535.999-.786 2.087-1.431 2.418-1.433.33-.002 1.534-.491 2.673-1.085 1.867-.974 2.198-.967 3.35.075 1.17 1.06 1.411 1.062 2.908.014 1.802-1.262 5.599-1.553 5.599-.429 0 1.224 2.014.783 3.027-.663.864-1.234 1.453-1.317 5.647-.797 2.575.32 5.353.94 6.172 1.378 2.238 1.198 3.725.968 3.725-.576 0-.936-.796-1.636-2.5-2.199-1.375-.454-2.527-1.202-2.56-1.662a90.335 90.335 0 0 0-.257-2.623c-.347-3.119.212-3.663 2.53-2.464 1.14.59 2.073 1.428 2.073 1.864 0 .436.723 1.523 1.607 2.415.884.892 2.004 2.115 2.49 2.719.485.603 1.418 1.397 2.074 1.764 2.015 1.128.633 2.987-2.22 2.987-2.85 0-3.022.382-1.226 2.716 1.147 1.49 1.55 1.58 4.323.956 3.508-.788 5.248-2.603 4.72-4.922-.475-2.082.432-2.04 2.454.112 2.063 2.195 4.054 2.711 5.189 1.344.732-.882.64-1.247-.51-2.036-.77-.529-1.98-1.531-2.686-2.228-.744-.732-2.828-1.423-4.944-1.64-4.281-.437-5.547-2.016-1.616-2.016 3.007 0 3.956-.636 2.467-1.652-.74-.506-.166-.584 1.944-.263 2.023.308 3.837 1.25 5.587 2.9 3.044 2.87 3.918 3.047 3.918.791 0-2.183-3.375-5.334-6.852-6.396l-2.79-.852 2.857-.204c4.807-.344 6.389-.863 5.46-1.792-.45-.45-.818-1.033-.818-1.297 0-.6 6.44-1.626 10.715-1.706 2.215-.042 3.938-.6 5.544-1.793 2.192-1.63 2.487-1.672 5-.73 1.468.551 4.76 1.028 7.313 1.061 2.753.035 5.486.515 6.713 1.179l2.07 1.12-2.188 1.292c-1.737 1.026-3.738 3.646-3.738 4.895 0 .11 1.607-.13 3.571-.532 1.965-.402 3.572-.96 3.572-1.241 0-.794 12.973-.194 15.225.704 2.825 1.127 6.62.997 7.887-.27 1.195-1.194 5.46-1.473 5.46-.357 0 .393.964.714 2.142.714 1.38 0 2.143.363 2.143 1.02 0 .56 1.748 1.846 3.884 2.857 4.42 2.09 5.402 2.246 5.402.856 0-.78 1.337-.928 6.51-.72 6.313.254 6.499.216 6.12-1.233-.382-1.461-.242-1.484 6.168-1.026 3.607.257 7.202.727 7.987 1.044 4.14 1.669 7.045 2.202 11.989 2.202 3.752 0 6.578.442 9.04 1.412 2.614 1.03 5.85 1.491 11.99 1.707 4.626.162 9.856.543 11.624.847 2.945.505 3.132.452 2.234-.636-.892-1.08-.637-1.186 2.857-1.176 4.756.014 12.086 1.683 13.09 2.98.411.532 3.078 2.364 5.926 4.07 2.849 1.707 5.18 3.242 5.18 3.41 0 .17-1.126.097-2.5-.16-2.731-.513-3.24.277-1.378 2.138.803.804 1.874 1.003 3.768.7 2.044-.327 3.047-.089 4.413 1.048 1.415 1.177 1.525 1.475.552 1.494-.669.013-2.349 1.19-3.734 2.617-2.344 2.413-2.846 2.604-7.23 2.756-5.91.205-7.405 1.342-6.054 4.604.499 1.204 1.328 2.19 1.842 2.19 1.89 0 5.965 3.185 5.614 4.388-.188.647.07 1.61.575 2.143.504.533.96 2.81 1.013 5.062l.097 4.093-2.182-1.593c-1.2-.877-4.397-3.763-7.104-6.415l-4.923-4.822.466-3.392c.256-1.866.807-4.393 1.223-5.616.628-1.843.525-2.54-.601-4.085-.752-1.03-2.075-1.872-2.965-1.884-1.328-.018-1.607.365-1.607 2.203 0 2.142-.06 2.185-1.607 1.175-.884-.577-2.653-1.2-3.93-1.387-2.827-.411-4.344 1.003-4.594 4.285-.135 1.768-.433 2.2-1.272 1.842-2.058-.873-16.831-.868-18.028.006-.623.456-1.526 2.265-2.006 4.02-.48 1.755-1.376 4.21-1.993 5.457-.93 1.88-.962 2.459-.187 3.393.514.62 1.55 1.126 2.3 1.126.752 0 2.168.524 3.146 1.166 1.646 1.078 1.876 1.078 3.08-.012 1.122-1.016 1.603-1.05 3.506-.25 2.326.978 3.61 2.385 7.775 8.53 2.232 3.292 2.55 4.287 2.458 7.709-.109 4.061-1.14 8.234-2.435 9.863-.51.64-1.606.79-3.478.473-2.216-.374-2.735-.247-2.735.672 0 .624-.408 1.135-.907 1.135-.626 0-.87 1.096-.788 3.556.115 3.443 1.757 6.69 7.171 14.18 1.027 1.421 1.054 1.761.186 2.311-2.155 1.364-4.069.74-4.882-1.593-.433-1.244-2.125-3.994-3.758-6.111-3.377-4.377-6.993-6.363-9.32-5.117-1.6.856-2.356.192-3.143-2.762-.33-1.238-.943-1.605-2.672-1.596-2.644.013-3.528.512-4.637 2.62-1.712 3.252-.526 8.083 1.984 8.083.73 0 1.512.482 1.738 1.072.449 1.168 2.986 1.465 3.63.424.22-.356 1.032-.482 1.804-.28 1.352.354 1.339.455-.357 2.679-2.914 3.82-2.27 6.654 1.794 7.904 2.455.755 5.728 4.44 5.728 6.449 0 .917.322 1.866.715 2.11 2.142 1.323-1.036 11.341-4.902 15.45-1.544 1.64-3.261 2.762-4.23 2.762-.898.001-2.345.45-3.215.999-.87.548-2.329 1.22-3.24 1.493-1.616.483-1.632.442-.623-1.533.57-1.116 1.262-3.074 1.537-4.35.275-1.277.846-2.322 1.269-2.322 1.68 0 5.478-3.7 6.273-6.11 3.286-9.954-9.83-17.69-16.567-9.77-1.42 1.67-2.122 1.923-4.874 1.75-4.076-.257-8.749 2.04-11.7 5.748-1.688 2.123-2.203 3.575-2.443 6.889-.167 2.31.07 5.332.528 6.717 1.193 3.617 6.43 8.21 10.013 8.783 2.705.432 2.888.613 2.888 2.844 0 1.911.82 3.271 4.145 6.873 4.473 4.846 6.701 9.745 5.4 11.875-.398.653-1.745 1.647-2.992 2.209-1.247.562-2.267 1.34-2.267 1.73 0 .388-.538 1.3-1.195 2.027-1.145 1.266-1.236 1.21-2.21-1.372-.559-1.481-1.184-3.586-1.39-4.677-.472-2.509-2.408-3.56-5.49-2.982-1.449.272-2.6.141-2.89-.327-.265-.428-1.105-.778-1.868-.778-1.19 0-1.386.513-1.386 3.613 0 2.228-.274 3.445-.714 3.173-.393-.243-.715-1.247-.715-2.232 0-2.28-2.682-8.773-4.371-10.58-.711-.762-2.992-2.066-5.068-2.898-3.701-1.484-3.779-1.576-3.986-4.705-.193-2.922-.484-3.364-3.456-5.244-1.785-1.13-3.577-2.78-3.982-3.67-.816-1.791-4.581-2.86-7.204-2.043-1.488.463-1.51.415-.41-.855.641-.74 1.378-2.045 1.639-2.9.614-2.02-1.2-6.324-3.093-7.337-.814-.435-1.674-1.563-1.91-2.505-1.046-4.168-6.706-5.73-9.746-2.69-2.083 2.083-2.076 5.994.016 8.22.864.92 1.571 2.519 1.571 3.552 0 2.956 2.865 5.76 5.958 5.828 2.46.055 2.61.193 2.612 2.395 0 1.774-.41 2.525-1.711 3.117-.942.43-2.028 1.467-2.413 2.307-.609 1.326-.769 1.082-1.226-1.874-.515-3.324-3.921-9.1-5.367-9.1-.39 0-.71-.582-.71-1.293 0-.71-.472-1.916-1.048-2.678-.577-.763-1.06-2.432-1.072-3.708-.031-3.189-2.181-5.179-5.594-5.179-1.493 0-3.1.386-3.571.857-.667.667-.858.2-.858-2.103 0-4.252-2.442-6.936-6.312-6.936-4.745 0-8.591 5.072-6.628 8.74.669 1.25.452 1.351-2.782 1.284-1.93-.04-3.907-.47-4.393-.957-.487-.487-2.083-.885-3.547-.885-2.994 0-5.623 2.512-5.623 5.373 0 1.994-2.485 2.502-9.5 1.944-4.426-.353-5.032-.6-6.823-2.771-1.831-2.222-2.133-2.337-4.418-1.681-1.995.572-3.157.412-6.213-.855-2.069-.857-3.76-1.916-3.76-2.354 0-1.204-5.258-6.084-6.556-6.084-.625 0-1.613.726-2.195 1.614-1.158 1.767-.777 2.734 2.83 7.19.9 1.11 1.635 2.594 1.635 3.297 0 .702.698 2.165 1.55 3.25 1.465 1.86 1.605 1.899 2.5.673.873-1.193.95-1.198.95-.067 0 3.043 6.419 2.63 8.882-.571l1.383-1.797 1.48 2.639c.876 1.562 2.202 2.809 3.25 3.056.973.23 2.256 1.318 2.851 2.419 1.019 1.884.988 2.064-.525 3.093-.884.6-1.607 1.702-1.607 2.447 0 1.917-7.07 9.185-8.934 9.185-.832 0-2.45.978-3.596 2.174-1.212 1.265-3.4 2.505-5.234 2.967-1.733.436-4.219 1.73-5.524 2.876-3.26 2.864-5.687 2.503-8.284-1.231-1.092-1.572-2.477-4.487-3.078-6.478-1.09-3.617-1.52-4.328-5.886-9.72-1.277-1.576-2.321-3.609-2.321-4.516 0-.908-1.045-2.946-2.322-4.53-4.452-5.521-8.392-11.556-8.392-12.854 0-2.065-.79-2.325-2.109-.696-1.214 1.5-1.222 1.496-2.921-1.254-1.666-2.696-1.714-2.718-2.142-.998-.484 1.944.518 5.689 1.522 5.689.35 0 1.203 1.118 1.894 2.486.69 1.367 2.763 5.466 4.605 9.107 1.842 3.642 3.569 7.73 3.838 9.086.269 1.355 1.406 3.38 2.526 4.501 1.12 1.12 2.375 3.292 2.788 4.825.781 2.901 2.354 4.978 3.8 5.017 1.186.032 4.758 3.293 4.828 4.408.031.51.754 2.202 1.607 3.76 2.275 4.16 4.505 4.568 12.31 2.254 3.451-1.024 6.437-1.699 6.635-1.5.198.197-.18 1.491-.84 2.875-.659 1.383-1.199 3.099-1.199 3.813 0 3.16-5.97 12.339-10.169 15.632-3.19 2.502-6.115 6.078-8.16 9.978-.668 1.273-1.719 2.478-2.335 2.677-1.11.359-2.72 2.671-5.228 7.503-1.33 2.564-1.116 5.003 1.035 11.792 1.152 3.637 2.033 16.104 1.242 17.581-.841 1.573-4.297 3.49-6.29 3.49-.814 0-2.016.979-2.852 2.322-.795 1.277-2.105 2.88-2.912 3.56-1.285 1.088-1.444 1.946-1.291 6.96l.175 5.718-3.036 2.78c-1.67 1.53-3.036 3.294-3.036 3.92 0 2.168-2.281 6.83-3.537 7.23-.693.22-1.837 1.678-2.541 3.24-.705 1.563-1.596 2.842-1.98 2.842-.383 0-1.881 1.07-3.328 2.377-2.316 2.092-3.422 2.49-9.218 3.321-3.623.52-6.755 1.218-6.962 1.552-.719 1.163-4.464.665-4.834-.643zm10.424-69.35c4.873-2.8 5.37-10.178.96-14.22-2.15-1.97-3.074-2.322-6.091-2.322-2.945 0-3.983.374-6.032 2.172-4.019 3.529-4.32 9.458-.668 13.111 3.27 3.27 7.537 3.725 11.831 1.258zm39.509-39.01c1.873-1.873 2.21-3.916 1.014-6.15-.51-.953-.51-1.382 0-1.382 1.5 0 3.596-2.915 3.596-5 0-2.89-2.24-5-5.306-5-3.785 0-6.509 3.874-4.831 6.872.556.993.266 1.673-1.364 3.195-1.275 1.191-2.07 2.66-2.07 3.823 0 2.419 2.955 5.395 5.357 5.395 1.018 0 2.64-.789 3.604-1.753zm-105-15c.964-.964 1.753-2.586 1.753-3.604 0-2.381-2.976-5.357-5.357-5.357-2.382 0-5.357 2.976-5.357 5.357 0 1.018.789 2.64 1.753 3.604.964.964 2.586 1.753 3.604 1.753 1.018 0 2.64-.789 3.604-1.753zm15.585-2.584c4.959-3.9-.453-11.475-6.056-8.476-3.318 1.775-3.124 7.446.31 9.107 2.358 1.14 3.68.994 5.746-.631zm-27.608-2.127c2.023-.705 3.776-3.146 3.776-5.259 0-.518-.666-1.788-1.48-2.823-1.913-2.432-5.666-2.585-7.778-.319-2.445 2.625-1.574 7.142 1.626 8.432.858.346 1.593.649 1.633.674.04.025 1.04-.292 2.223-.705zm165.101-34.554c1.998-1.033 3.677-3.768 3.672-5.98 0-.669-.694-2.341-1.539-3.716s-1.605-3.318-1.688-4.317c-.44-5.249-5.21-9.033-10.496-8.324-1.548.207-3.431.936-4.187 1.62-1.307 1.183-1.373 1.18-1.373-.072 0-2.348-2.846-4.621-5.787-4.621-5.133 0-7.496 6.068-3.801 9.762 1.538 1.538 2.299 1.778 4.643 1.464 3.165-.425 3.602.397 1.231 2.317-2.365 1.915-2.164 6.132.397 8.335 2.284 1.964 4.486 2.153 6.736.577 1.513-1.06 1.713-.988 3.993 1.429 2.643 2.802 4.915 3.225 8.199 1.526zm65.64-9.378c3.796-4.315.977-11.032-4.63-11.032-3.438 0-5.575 1.474-6.588 4.542-2.26 6.852 6.459 11.897 11.217 6.49zm-98.718-.643c3.627-3.627.744-9.675-4.613-9.675-.714 0-2.145.666-3.18 1.48-2.402 1.89-2.638 6.336-.454 8.52 2.053 2.053 6.025 1.897 8.247-.325zm60.491-11.705c1.074-.617 2.477-2.225 3.117-3.574 2.847-6-1.406-12.967-7.916-12.967-2.986 0-3.225-.136-3.225-1.833 0-4.025-3.973-7.235-7.89-6.375-3.128.688-5.912 4.367-5.45 7.207.242 1.494-.129 3.304-1.064 5.195-1.235 2.495-1.319 3.258-.6 5.438 1.014 3.07 4.207 4.97 7.466 4.44 1.729-.28 2.618.03 3.892 1.352 3 3.118 7.446 3.544 11.67 1.117zm-132.634-34.009c.964-.964 1.753-2.586 1.753-3.604 0-2.381-2.976-5.357-5.357-5.357-1.018 0-2.64.789-3.604 1.753-.964.965-1.753 2.586-1.753 3.604 0 1.018.789 2.64 1.753 3.604.964.964 2.586 1.753 3.604 1.753 1.018 0 2.64-.789 3.604-1.753z" color="#000" overflow="visible"/><path style="isolation:auto;mix-blend-mode:normal" d="M379.22 549.444c-.834-.22-1.426-1.71-2.01-5.061-.521-2.996-1.71-6.212-3.22-8.71-1.811-3-2.664-5.608-3.514-10.748-1.006-6.085-4.424-16.035-6.319-18.396-1.11-1.382-.023-6.34 2.72-12.415 2.119-4.692 2.363-5.768 1.707-7.495-.422-1.11-1.227-4.202-1.788-6.871-1.024-4.868-3.215-10.034-4.625-10.906-.414-.256-1.588-1.787-2.607-3.403-1.771-2.805-1.818-3.135-1.043-7.343 1.304-7.077 1.09-9.277-1.07-10.976-1.15-.905-2.932-1.48-4.583-1.48-2.297 0-3.039-.427-4.964-2.857l-2.262-2.858 2.024-.084c1.113-.047 2.266-.046 2.561 0 .296.047 1.738-.558 3.204-1.344 1.467-.786 3.073-1.429 3.57-1.429.497 0 .903-.34.903-.756s.279-.584.62-.374c.785.486 3.119-2.036 2.477-2.678-.263-.262-.103-.477.356-.477 1.24 0 1.016-4.77-.32-6.811-1.104-1.684-1.087-1.76.39-1.76 2.066 0 5.049-3.09 5.049-5.23 0-2.91-2.481-5.354-5.354-5.273-1.377.039-2.503.348-2.503.686 0 .338-.285.439-.634.223-.7-.432-2.337 1.23-2.164 2.197.33 1.843-.133 3.15-.94 2.65-1.28-.79-6.262-.933-6.262-.18 0 .352-.402.56-.893.462-.491-.098-.813.223-.714.714.098.491-.075.893-.384.893-1.054 0-.907 4.474.203 6.168 1.371 2.093.348 2.222-1.493.187-1.753-1.936-4.792-3.498-6.808-3.498h-1.589l1.602-1.705c1.94-2.066 1.79-5.472-.33-7.446-2.47-2.301-9.25-1.038-7.72 1.438.194.314.013.57-.404.57-.416 0-.756.818-.756 1.818 0 2.096 2.902 5.324 4.789 5.328.923.002.681.37-.86 1.313-2.71 1.656-4.179 3.417-3.614 4.331.246.398-.747.92-2.26 1.19-1.484.263-3.547 1.27-4.584 2.237-1.251 1.166-2.052 1.489-2.38.959-.707-1.145-5.942-.389-7.582 1.095-.84.76-1.366 2.18-1.366 3.687v2.452l-2.958-2.176c-1.627-1.196-3.844-3.726-4.926-5.621-1.083-1.896-2.987-4.537-4.233-5.87-2.548-2.728-4.083-8.622-3.006-11.54.346-.937.675-5.062.732-9.167.092-6.59.342-7.97 2.136-11.786 3.117-6.627 5.55-9.755 9.239-11.874 1.855-1.065 4.113-2.796 5.017-3.847 1.84-2.138 2.985-2.082 4.134.201 2.401 4.774 6.218 5.826 8.883 2.449 1.213-1.538 1.476-2.624 1.21-5-.388-3.48.146-3.717 3.61-1.605 3.49 2.128 6.025 1.855 8.325-.895 1.505-1.799 1.862-2.837 1.583-4.61-.34-2.16-.242-2.28 1.731-2.143 1.15.08 2.092.387 2.093.681.003.956 3.576.567 5.324-.578 1.195-.783 2.09-.915 3.01-.442 1.868.96 8.635 3.375 12.191 4.35 1.664.455 3.326 1.391 3.694 2.08.792 1.479 8.674 4.01 10.593 3.4.733-.232 1.74-1.546 2.236-2.92 1.047-2.895 1.659-3 6.168-1.068 1.833.786 3.911 1.428 4.619 1.428.974 0 1.247.492 1.127 2.026-.088 1.114-.337 2.32-.553 2.678-.216.36-.428 1.94-.472 3.51-.044 1.572-.16 3.456-.258 4.188-.098.73.465 1.695 1.25 2.142.787.448 1.686 1.215 2 1.706 1.05 1.64 6.096 1.077 8.072-.898.985-.986 1.611-2.083 1.391-2.44-.22-.355-.066-.758.342-.894.408-.136.812-2.704.898-5.707l.155-5.46 2.857.11c2.68.104 2.952-.076 4.373-2.892 1.394-2.758 1.625-2.92 2.858-1.987.737.559 2.339 1.026 3.558 1.039 2.757.028 5.997-3.53 5.997-6.586 0-1.43.263-1.885.872-1.508.48.296 2.244.61 3.921.7 2.525.133 3.296-.153 4.485-1.665 3.071-3.905.979-8.982-3.818-9.266-1.235-.072-4.26-.359-6.722-.636-3.764-.423-4.7-.299-5.893.78-.779.705-1.422 2.116-1.428 3.135-.015 2.686-.982 3.874-2.707 3.327-1.28-.407-2.856-4.04-2.157-4.975.128-.171-.547-1.14-1.5-2.155-3.664-3.9-10.053-1.234-10.053 4.196 0 6.232-6.82-.136-8.237-7.692-.567-3.025-3.195-5.49-5.852-5.49-2.583 0-5.911 3.442-5.911 6.113 0 2.3 2.454 5.649 3.614 4.932.37-.228.667.167.66.877-.011 1.392-1.172 3.61-1.6 3.057-1.435-1.857-6.246-10.832-6.246-11.654 0-.942-13.244-11.535-15.519-12.413-.482-.186-1.246.474-1.698 1.466-.685 1.503-.577 2.197.648 4.177 1.955 3.16 5.049 6.042 7.462 6.953 1.08.409 1.965 1.244 1.965 1.857 0 .93-.267.974-1.608.269-3.116-1.639-7.359-4.846-10.688-8.079-1.852-1.798-3.716-3.27-4.143-3.27-.426 0-1.804.55-3.061 1.22-1.257.67-3.892 1.392-5.854 1.606-3.183.347-3.688.645-4.688 2.768-.91 1.933-5.491 5.934-5.74 5.013-.037-.137-.186-1.535-.33-3.106-.555-6.009-1.445-11.466-2.018-12.38-.329-.522-1.607-1.566-2.841-2.318-1.234-.753-1.824-1.37-1.312-1.37 1.456-.005 7.4-2.837 9.913-4.725 1.251-.939 2.441-1.707 2.646-1.707.204 0 1.015 1.455 1.802 3.234 1.332 3.011 1.594 3.217 3.79 2.975 4.972-.548 8.113-3.709 8.295-8.35.064-1.63-.205-3.564-.597-4.297-.902-1.685.181-2.472 2.035-1.48.895.48 2.633.485 5.193.018 2.117-.386 5.816-.68 8.22-.652 4.047.046 4.51-.116 6.25-2.182 1.084-1.289 1.878-3.11 1.878-4.306 0-1.967.094-2.03 1.837-1.235 2.232 1.016 3.341-.161 2.958-3.14-.276-2.137.814-2.701 5.247-2.718 1.399-.005 3.115-.429 3.815-.94 1.212-.886 1.213-.98.02-1.965-.938-.775-2.908-.982-7.882-.829-6.143.19-6.69.093-7.445-1.316-1.196-2.235-.343-4.381 2.504-6.302 4.007-2.704 3.14-5.087-1.85-5.087-1.646 0-3.125 1.02-6.728 4.642-2.54 2.552-4.618 5.26-4.618 6.02 0 .757.86 2.054 1.911 2.881 1.902 1.496 1.904 1.51.44 2.535-.81.567-1.678 2.132-1.93 3.478-.283 1.502-1.167 2.911-2.288 3.646-1.006.66-1.922 1.092-2.036.963-.114-.13-1.215-2.004-2.447-4.165-1.232-2.16-2.717-4.551-3.301-5.313-1.04-1.356-1.102-1.347-3.027.431-3.869 3.575-5.894 2.99-5.894-1.7 0-2.3.356-2.94 2.293-4.118 1.26-.767 3.147-1.582 4.192-1.812 1.34-.294 2.396-1.382 3.586-3.696 3.431-6.672 15.46-12.93 23.323-12.132 2.775.281 4.029.102 4.821-.69.589-.59 1.07-.727 1.07-.306 0 .42 1.046.81 2.322.866 2.204.097 2.177.125-.535.565-2.779.45-2.71.489 2.5 1.391 6.604 1.144 12.904 2.866 14.152 3.868 1.77 1.421-1.033 2.088-5.167 1.23-4.357-.905-7.698-.66-8.116.593-.156.469.665 1.184 1.825 1.588 1.16.404 2.468 1.523 2.906 2.486.757 1.66 1.061 1.737 5.92 1.491 4.687-.237 5.206-.42 6.11-2.143.777-1.484 1.513-1.884 3.464-1.884 1.362 0 2.477-.322 2.477-.715 0-.392.747-.714 1.659-.714s3.512-1.003 5.776-2.23c3.656-1.98 4.311-2.127 5.842-1.308 1.313.703 2.106.73 3.33.116 2.202-1.105 3.463-1.24 5.409-.582 1.147.388 2.045.211 2.913-.574 1.57-1.42 4.322-1.439 9.599-.065 5.372 1.4 6.186 1.354 6.186-.347 0-.947-.832-1.767-2.5-2.464-2.274-.95-2.5-1.306-2.5-3.938 0-3.608.967-3.676 3.85-.267a143.58 143.58 0 0 0 4.543 5.071c1.277 1.345 2.322 2.72 2.322 3.056 0 .336-1.125.821-2.5 1.08-2.819.528-3.162 1.632-1.091 3.506 2.595 2.349 9.305-.21 9.305-3.549v-1.748l2.6 1.765c2.918 1.98 3.05 2.01 4.543 1.059.816-.52.888-.977.302-1.918-1.143-1.832-4.23-3.956-6.13-4.218-.92-.127-2.637-.54-3.815-.92l-2.143-.688 1.913-.061c1.053-.034 2.428-.576 3.057-1.205 1.508-1.508 3.972-.857 7.076 1.868 2.9 2.547 4.033 2.696 4.003.525-.03-2.073-1.198-3.567-4.236-5.414-2.528-1.538-2.278-1.968 1.401-2.408 1.232-.147 1.786-.652 1.787-1.63.001-1.53 2.965-2.39 8.524-2.47 1.545-.023 4.22-.724 5.943-1.559 2.814-1.362 3.542-1.435 7.13-.714 2.199.441 5.182.803 6.629.803 1.447 0 3.664.36 4.927.8l2.295.8-2.546 2.332c-2.329 2.133-3.388 4.639-1.961 4.639.321 0 2.328-.518 4.459-1.15 3.863-1.148 9.069-1.11 20.134.146 2.469.28 4.462.174 5-.267.491-.403 1.536-.819 2.322-.924 1.97-.265 7.5 1.38 7.5 2.23 0 .382 1.777 1.566 3.95 2.632 3.307 1.622 4.176 1.795 5.347 1.063.8-.499 3.85-.873 7.122-.873 4.839 0 5.724-.182 5.724-1.176 0-1.037.782-1.128 6.607-.765 3.634.226 7.893.869 9.464 1.427 1.572.56 5.75 1.231 9.286 1.494 3.536.262 8.036.962 10 1.556 1.964.593 8.506 1.407 14.536 1.81 9.576.639 11.069.593 11.786-.36.687-.914 1.58-.981 5.464-.41 2.553.374 4.987.688 5.408.696.42.008 3.773 1.942 7.449 4.3 5.397 3.46 6.315 4.285 4.77 4.285-1.093 0-1.913.398-1.913.929 0 1.74 1.71 2.643 5 2.643 4.589 0 5.532 1.178 2.636 3.29l-3.934 2.871c-.94.687-2.793 1.164-4.286 1.105-4.285-.17-7.273 1.122-7.273 3.146 0 1.843 1.05 3.027 4.906 5.527 1.538.998 2.758 2.592 3.382 4.418 1.09 3.19 1.327 8.214.388 8.214-.335 0-3.358-2.572-6.718-5.716-3.995-3.738-6.026-6.147-5.87-6.964l1.098-5.695c.75-3.883.709-4.675-.323-6.25-1.638-2.5-4.72-2.51-4.72-.018 0 2.112.16 2.079-3.229.663-3.805-1.59-5.827-.883-6.805 2.383l-.801 2.675-7.976-.243c-10.699-.327-11.228-.072-13.575 6.538-2.232 6.288-2.333 7.535-.65 8.067.688.218 2.461.902 3.941 1.52 2.222.93 2.984.969 4.372.226 1.37-.733 2.03-.717 3.56.085 2.175 1.14 7.316 7.687 8.814 11.225 1.14 2.694.736 8.045-.908 12.04-.839 2.037-1.289 2.324-3.671 2.344-3.31.027-5.57 2.542-5.003 5.566.983 5.247 1.567 6.556 5.239 11.734 2.726 3.845 2.881 4.485 1.244 5.113-1.507.579-2.897-.62-4.609-3.975-3.17-6.213-8.39-10.344-12.055-9.539-1.762.387-2.1.175-2.768-1.74-.676-1.942-1.074-2.182-3.614-2.182-3.538 0-5.078 1.876-5.078 6.188 0 3.273.813 4.186 3.572 4.015 1.193-.074 1.349.014.47.265-1.23.352-1.214.448.222 1.454 1.064.746 2.323.93 4.083.6l2.545-.477-1.517 2.455c-2.25 3.64-2.004 6.022.774 7.498 3.712 1.97 6.104 4.706 7.055 8.068 1.147 4.053.94 5.845-1.226 10.649-2.159 4.784-4.77 7.635-7.555 8.246-1.15.253-2.952.91-4.006 1.46-2.87 1.496-2.944 1.337-1.376-2.92.796-2.161 1.824-3.93 2.284-3.93.995 0 4.172-3.287 5.302-5.488 1.016-1.977 1.048-6.654.046-6.654-.416 0-.573-.297-.349-.66.486-.786-2.883-4.538-5.098-5.68-3.123-1.608-7.028-.98-10.534 1.697-2.495 1.904-3.963 2.5-6.162 2.5-3.272 0-6.519 1.434-9.486 4.189-3.307 3.07-3.988 5.064-3.806 11.145.141 4.715.398 5.732 1.72 6.802.854.692 1.352 1.459 1.107 1.704-.245.245-.083.446.36.446s1.43.67 2.193 1.489c.763.819 2.623 1.91 4.135 2.423 2.2.749 2.928 1.466 3.653 3.606.498 1.469 2.144 4.155 3.658 5.969 6.358 7.617 7.336 11.31 3.597 13.584-1.208.734-2.673 2.015-3.255 2.846-1.612 2.302-2.264 1.86-3.49-2.357-.619-2.128-1.512-4.185-1.985-4.571-.472-.386-2.627-.815-4.788-.953l-3.928-.25-.435 2.857-.434 2.857-.221-3.215-.222-3.214-.28 2.679c-.3 2.874-1.618 3.74-1.63 1.071-.009-2.13-3.004-8.433-4.739-9.973-.757-.672-2.856-1.876-4.662-2.676-3.038-1.343-3.322-1.693-3.765-4.65-.377-2.516-.966-3.529-2.76-4.752-1.255-.855-3.31-2.632-4.566-3.948-1.764-1.848-2.87-2.394-4.853-2.394-2.049 0-2.525-.252-2.357-1.25.115-.687.493-1.456.84-1.707 1.184-.86-.289-5.362-2.425-7.408-1.174-1.125-2.134-2.438-2.134-2.92 0-1.407-4.24-4.572-6.126-4.572-.952 0-1.731.34-1.731.757 0 .416-.296.573-.657.35-.856-.529-3.05 1.667-2.522 2.522.223.361.066.657-.35.657-1.292 0-.837 2.772 1.029 6.277.982 1.845 1.785 3.863 1.785 4.485 0 1.362 3.12 4.452 3.803 3.768.266-.265.483-.108.483.35 0 .46.77.834 1.71.834 3.294 0 3.121 3.086-.316 5.627-2.083 1.54-2.108 1.541-2.108.109 0-.798-.312-1.45-.692-1.45-.38 0-.507-.482-.28-1.072.225-.589.055-1.071-.38-1.071s-.753-.241-.706-.536c.214-1.359-.224-2.26-2.033-4.181-1.928-2.048-4.48-7.983-4.48-10.418 0-1.698-3.032-3.583-5.5-3.419-4.154.277-4.5.099-4.523-2.339-.026-2.591-1.001-4.182-3.323-5.419-2.626-1.398-4.843-.94-7.684 1.587-2.404 2.139-2.682 2.722-2.409 5.06l.309 2.644-3.078-.418-6.187-.839c-2.644-.358-3.392-.158-5 1.332-1.04.964-1.891 2.239-1.891 2.833 0 2.246-1.966 2.878-7.886 2.535-5.286-.306-5.92-.512-8.117-2.64-2.1-2.037-2.69-2.253-4.987-1.822-3.652.686-6.554-.674-11.005-5.154-3.792-3.818-5.553-4.544-7.148-2.949-1.413 1.413-.981 3.758 1.262 6.855 1.166 1.61 2.307 3.666 2.536 4.571.23.905 1.013 2.433 1.742 3.396 1.131 1.494 1.492 1.612 2.464.805.957-.794 1.139-.772 1.139.137 0 2.592 5.86 1.962 8.987-.966 1.479-1.385 1.491-1.383 2.294.378.444.975 2.105 2.591 3.691 3.593 1.587 1.001 2.885 2.276 2.885 2.833 0 1.688-3.007 6.154-6.83 10.144-2.701 2.82-3.333 3.853-2.5 4.09.614.176-.08.283-1.542.24-1.808-.054-3.177.408-4.285 1.446-.896.839-3.193 2.194-5.104 3.011-1.911.818-4.401 2.147-5.534 2.953-4.302 3.063-7.468.746-10.662-7.802-.83-2.223-2.747-5.648-4.26-7.612-1.514-1.965-3.416-5.12-4.227-7.013-.811-1.892-2.88-5.267-4.598-7.5-3.382-4.396-6.172-9.214-6.172-10.655 0-1.208-.7-1.14-2.197.216-1.14 1.031-1.34.946-2.531-1.072-1.456-2.463-2.066-2.704-2.695-1.063-.607 1.58.233 4.679 1.727 6.372 1.53 1.734 8.725 16.09 9.939 19.828.524 1.616 1.182 2.494 1.65 2.205.493-.306.614-.055.33.684-.245.642-.1 1.38.325 1.643.425.263 1.682 2.484 2.794 4.936 1.622 3.577 2.642 4.823 5.158 6.297 2.392 1.402 3.43 2.607 4.374 5.08 1.425 3.732 4.063 6.113 6.772 6.113 1.035 0 4.247-.655 7.138-1.456 2.89-.801 5.398-1.314 5.572-1.14.175.175-.188 1.806-.805 3.625-.618 1.818-1.123 3.728-1.123 4.242 0 1.79-5.615 9.61-9.627 13.408-2.22 2.101-5.21 5.589-6.646 7.75-1.436 2.16-3.585 4.907-4.776 6.104-1.19 1.196-2.949 3.86-3.907 5.919l-1.741 3.743 1.586 6.581c.872 3.62 1.784 9.396 2.026 12.836.507 7.198-.137 8.512-4.866 9.93-1.792.536-3.701 1.979-5.598 4.228-2.83 3.356-2.88 3.512-2.88 9.035 0 5.59-.014 5.633-2.785 8.34-1.739 1.697-3.119 3.912-3.674 5.895-.49 1.747-1.797 4.033-2.907 5.08-1.11 1.048-2.372 2.762-2.806 3.81-1.4 3.38-7.443 6.83-14.613 8.343-3.536.746-6.91 1.53-7.5 1.742-.59.213-1.604.246-2.255.075zm5.37-68.585c.272-.272 1.209-.602 2.083-.734 2.888-.437 4.962-3.29 5.254-7.229.146-1.98-.061-3.8-.461-4.048-.4-.248-.577-.693-.394-.99.184-.298-.722-1.537-2.012-2.754-2.093-1.974-2.772-2.2-6.279-2.08-3.356.113-4.257.458-6.158 2.358-1.224 1.225-2.026 2.426-1.782 2.67.245.245.096.445-.33.445-.44 0-.773 1.383-.773 3.214 0 1.768.313 3.214.697 3.214.383 0 .53.27.327.598-.498.806 1.656 3.808 2.402 3.347.325-.2.788.149 1.029.777.25.65.896.965 1.503.732.586-.225 1.066-.097 1.066.283 0 .789 3.077.947 3.827.197zm43.288-40.548c1.327-1.413 1.578-2.3 1.28-4.524-.296-2.207-.094-2.939 1.001-3.623.755-.471 1.18-1.168.945-1.548-.235-.38-.086-.69.33-.69 1.223 0 .877-4.725-.425-5.806-.65-.54-2.604-.98-4.343-.98-3.967 0-5.453 1.652-4.959 5.51.268 2.092-.004 2.997-1.287 4.285-2.056 2.063-2.102 5.28-.105 7.42 2.085 2.233 5.442 2.213 7.563-.044zM322.68 425.515c2.119-1.99 2.163-5.312.1-7.508a5.125 5.125 0 0 0-7.465-.026c-4.662 4.924 2.426 12.174 7.365 7.534zm-11.255-5.206c4.931-2.55 3.198-9.194-2.45-9.384-2.544-.086-4.852.94-4.263 1.893.23.374.1.679-.29.679-1.28 0-.662 4.602.84 6.25 1.701 1.869 3.345 2.019 6.163.562zm165.82-35.329c2.514-2.514 2.712-5.317.66-9.34-.786-1.54-1.43-3.295-1.43-3.9s-.31-1.1-.691-1.1c-.38 0-.53-.424-.33-.942.428-1.117-2.4-4.95-3.26-4.418-.328.203-.724-.014-.88-.482-.31-.93-7.695-1.564-7.695-.661 0 .303-.402.566-.893.584-.491.019-1.46.27-2.151.556-.948.393-1.155.252-.838-.574.716-1.864-2.209-4.063-5.404-4.063-3.73 0-5.568 1.799-5.581 5.464-.014 3.764 2.091 5.964 5.705 5.964 3.147 0 3.244.197 1.305 2.663-1.937 2.462-1.796 4.649.474 7.346 1.624 1.93 2.278 2.217 4.464 1.956 1.409-.167 3.057-.526 3.662-.797.704-.315 1.97.286 3.521 1.67 3.253 2.905 6.506 2.93 9.362.074zm61.374-6.525c0-.416.274-.587.61-.38.336.208 1.331-.39 2.212-1.327 1.885-2.006 2.314-6.562.713-7.574-.57-.36-.755-.66-.412-.666.343-.006.226-.49-.26-1.075-.485-.585-1.167-.887-1.516-.672-.348.215-.633.051-.633-.365s-1.39-.756-3.09-.756c-2.322 0-3.482.418-4.67 1.683-1.765 1.878-2.942 6.888-1.62 6.888.445 0 .77.241.724.536-.243 1.54.27 2.376 2.049 3.341 2.287 1.241 5.893 1.465 5.893.367zm-95.697-2.474c2.028-1.836 1.862-5.67-.342-7.874-2.231-2.231-6.038-2.37-7.92-.29-2.222 2.455-2.503 6.528-.595 8.635 1.483 1.64 6.84 1.354 8.857-.47zm56.667-10.122c.273-.272 1.185-.6 2.028-.728 3.204-.49 5.391-3.897 5.446-8.486.036-3.043-2.244-7.818-3.394-7.108-.354.219-.756.058-.894-.357-.139-.416-1.371-.932-2.74-1.147-3.621-.57-4.988-1.509-4.988-3.426 0-2.254-3.775-5.396-6.483-5.396-1.149 0-2.088.34-2.088.757 0 .416-.322.557-.714.315-.393-.243-.715-.048-.715.434 0 .481-.217.658-.482.393-.842-.842-3.08 3.366-3.084 5.803-.003 1.29-.487 3.498-1.077 4.908-1.224 2.931-1.392 5.247-.38 5.247.381 0 .523.444.315.986-.623 1.622 3.137 4.014 6.309 4.014 1.999 0 3.476.539 5.003 1.824 1.192 1.003 2.605 1.656 3.14 1.451.533-.205.97-.061.97.32 0 .788 3.078.946 3.828.196zm-129.006-35.51c4.708-4.968-2.465-12.129-7.454-7.442-2.119 1.99-2.163 5.312-.1 7.508 2.066 2.2 5.434 2.17 7.554-.067zM195.02 602.392c-.733-.883-1.036-.92-1.506-.179-.434.684-.59.59-.599-.358-.011-1.364-2.615-4-5.975-6.046-2.76-1.682-7.17-10.392-6.63-13.093.387-1.934-1.056-10.47-2.038-12.06-.272-.44-1.189-.703-2.038-.586-1.421.196-1.591-.214-2.136-5.145-1.097-9.925-.367-14.568 2.688-17.103 2.454-2.037.675-8.61-2.33-8.61-.46 0-.837-.322-.837-.715 0-.393.453-.714 1.008-.714 1.797 0 4.706-4.213 4.706-6.816 0-2.535-3.53-7.47-5.342-7.47-.633 0-1.01-1.782-1.25-5.893-.378-6.54-1.834-10.951-2.85-8.64-.43.983-.508.812-.305-.671.194-1.415-.159-2.292-1.22-3.036l-1.494-1.046 1.57-1.1c1.292-.904 1.52-1.63 1.285-4.078-.306-3.17-1.778-4.822-4.3-4.822-1.978 0-4.85 2.062-4.422 3.175.186.486.094 1.278-.204 1.761-.382.619-1.101.214-2.434-1.37-2.094-2.488-2.448-4.28-.845-4.28 2.076 0 2.551-2.344 1.695-8.356-.15-1.045-3.538-2.524-5.348-2.333-2.997.316-3.81-.249-7.357-5.11-3.51-4.812-3.663-5.2-2.831-7.209.484-1.167 2.098-2.929 3.587-3.914 1.49-.986 3.179-2.51 3.753-3.386 1.496-2.283 1.045-6.058-.913-7.644l-1.629-1.319 1.937-2.302c1.838-2.184 1.921-2.606 1.626-8.237-.175-3.334-.049-5.536.289-5.026.61.923 1.09.52 3.073-2.588.424-.663 1.88-1.173 3.572-1.253 1.571-.074 3.42-.612 4.107-1.197 1.115-.947 1.25-.934 1.25.12 0 1.391 1.651 1.568 2.701.29.404-.491.845-1.697.98-2.679.301-2.175 2.978-2.802 4.826-1.13.848.767 3.387 1.28 7.94 1.603 5.503.39 6.956.745 8.16 1.991.805.834 3.329 3.254 5.608 5.378 3.971 3.702 4.372 3.894 9.643 4.618l5.5.754 2.445 4.872c2.349 4.679 2.4 4.95 1.296 6.818-1.405 2.379-.84 3.462 1.975 3.782 1.574.178 2.085.573 1.93 1.493-.18 1.076.394 1.25 4.14 1.25 4.085 0 4.425.13 5.568 2.138 1.154 2.028 1.456 2.139 5.86 2.153 5.622.017 7.857.549 7.857 1.87 0 1.537-3.783 5.02-5.135 4.726-.663-.143-1.869.402-2.679 1.212-.81.81-1.484 1.23-1.497.936-.014-.294-.485.268-1.047 1.25-1.2 2.102-1.4 5.715-.315 5.715.416 0 .558.321.315.714-.242.393-.082.714.358.714.439 0 .598.324.354.72-.245.395.138.934.85 1.197.713.264 1.5.784 1.75 1.156.25.373 1.757.712 3.35.753 3.569.094 6.234-2.133 7.303-6.1.435-1.617 1.168-2.726 1.802-2.726.588 0 1.901-.545 2.917-1.21l1.848-1.212-.527 2.461c-.541 2.53-6.45 12.104-7.47 12.104-.313 0-.559 1.366-.546 3.036.053 6.708-1.564 15.738-3.503 19.57-1.683 3.328-2.322 3.933-4.855 4.6-1.604.422-4.241 1.534-5.86 2.471-2.547 1.474-3.196 1.587-4.816.835-1.03-.478-1.875-1.13-1.878-1.447-.003-.318-.327-.38-.72-.136-.392.242-.714.1-.714-.315 0-.416-.964-.757-2.143-.757-1.178 0-2.142.34-2.142.757 0 .416-.322.557-.715.315-.393-.243-.714-.083-.714.357 0 .439-.307.608-.683.376-1.107-.684-2.673 2.596-2.816 5.898-.112 2.564.226 3.42 2.08 5.274 2.051 2.051 2.476 2.182 5.81 1.787l3.596-.426-1.136 1.734c-.625.954-1.137 2.228-1.137 2.832 0 .663-.64 1.096-1.617 1.096-1.37 0-1.891.797-3.393 5.179l-1.775 5.178-5.536-.13c-6.327-.15-6.56.152-3.373 4.365 3.568 4.716 2.713 6.445-3.651 7.386l-3.869.572.21 2.654c.209 2.65.206 2.653-2.622 2.653h-2.83l.731 2.679c.402 1.473 1.005 3.017 1.341 3.43.724.891.118 3.684-1.227 5.657-1.97 2.89-1.15 4.76 3.156 7.193.103.059-.44 1.524-1.207 3.256-.766 1.733-1.286 4.113-1.156 5.29.13 1.176-.11 2.355-.534 2.62-.534.333-.486.823.158 1.599.51.615 1.213.942 1.56.726.35-.215.634-.05.634.365a.77.77 0 0 0 .78.757c.43 0 1.598.643 2.597 1.428l1.816 1.429h-2.152c-1.183 0-2.564-.497-3.069-1.105zm.707-62.295c.96-.777 1.705-2.394 1.952-4.232.34-2.538.13-3.244-1.441-4.814-2.397-2.397-5.06-2.355-7.683.122-2.699 2.547-2.756 5.468-.16 8.178 2.227 2.324 5.031 2.609 7.332.746zm25.743-29.809c2.228-2.37 2.205-5.69-.054-7.74-3.896-3.535-9.94-1.387-9.94 3.533 0 5.327 6.408 8.025 9.994 4.207zm-24.038-24.605c5.2-1.976 6.34-7.477 2.467-11.889-2.222-2.53-2.407-2.597-6.133-2.213-3.698.382-3.923.304-6.029-2.094-1.208-1.376-2.619-2.325-3.152-2.12-.532.204-.966.06-.966-.321 0-1.222-5.282-.733-7.644.708-1.258.767-2.785 2.357-3.393 3.533-1.223 2.365-1.501 7.21-.414 7.21.38 0 .533.414.338.92-.194.506.637 1.868 1.846 3.026 1.831 1.755 2.848 2.128 6.09 2.232 2.386.077 3.891-.172 3.891-.645 0-.424.203-.568.451-.32.248.248 1.078.115 1.845-.295 1.073-.574 1.71-.46 2.763.493.753.681 1.37 1.005 1.37.72 0-.285.505-.014 1.122.604 1.28 1.28 3.002 1.42 5.548.451zM107.547 415.874c-3.947-.869-9.307-3.794-10.57-5.77-.315-.491-.958-.894-1.43-.896-.471-.002-1.792-.752-2.935-1.667-1.884-1.507-2.067-2.034-1.95-5.619.118-3.586-.135-4.314-2.709-7.798-1.56-2.113-3.104-4.163-3.428-4.556-.325-.393-.477-1.277-.338-1.966.138-.689-.254-1.446-.873-1.684-.618-.237-1.124-1.04-1.124-1.783 0-.744-.313-1.352-.696-1.352-1.008 0-2.875-3.91-2.875-6.02 0-2.33-3.332-4.796-4.336-3.21-.353.559-.647 2.06-.653 3.337-.012 2.44-.983 3.112-1.72 1.191-.24-.621-.434-2.821-.434-4.889 0-2.735-.356-4.082-1.306-4.942-.719-.65-1.545-1.182-1.837-1.182-1.52 0-2.576-2.58-3.31-8.086-1.065-8.009.2-12.902 4.56-17.628 2.738-2.97 4.819-6.39 5.753-9.464.51-1.676 1.652-1.584 2.211.178.653 2.056 1.377 1.766 2.357-.943 1.333-3.686 1.06-4.795-1.821-7.387l-2.679-2.41 1.592-1.135c1.266-.903 1.443-1.41.867-2.487-.398-.744-1.194-1.352-1.77-1.352-1.433 0-1.312-.898.42-3.1 1.272-1.616 1.402-2.459.978-6.346-.269-2.465-.593-4.67-.72-4.9-.128-.228-1.21-.272-2.407-.097-1.763.26-2.19.675-2.258 2.203-.085 1.88-.085 1.88-.536-.184-.583-2.67-3.375-4.72-7.11-5.22-1.63-.22-3.329-.839-3.775-1.377-.447-.539-1.577-.979-2.51-.979-.935 0-1.7-.366-1.7-.814 0-1.434-6.917-.141-9.468 1.77-1.274.954-3.052 1.959-3.95 2.232-.9.273-2.989 1.27-4.644 2.217-3.166 1.81-4.435 2.176-3.759 1.082.563-.91-3.273-1.654-5.765-1.118-1.954.42-1.988.387-.68-.67 1.703-1.376 1.097-2.079-1.723-1.999-5.701.162 3.32-5.637 10.347-6.653 4.341-.626 5.789-1.327 6.854-3.317.805-1.504.753-1.518-4.058-1.069l-4.873.455 1.479-1.478c1.226-1.226 2.372-1.478 6.72-1.478 4.047 0 5.447-.27 6.144-1.187 1.187-1.561 1.173-2.259-.047-2.259-.547 0-1.165-.445-1.374-.989-.269-.7.437-1.119 2.42-1.436 1.541-.246 4.168-1.058 5.84-1.803 3.5-1.562 10.717-2.898 15.895-2.942 3.906-.034 16.95 1.716 23.282 3.124 2.859.635 5.603.703 9.643.238 11.755-1.353 29.293-.6 28.623 1.229-.16.436.183 1.337.76 2.001.83.953 1.794 1.12 4.574.79 2.972-.351 3.779-.175 5.164 1.126l1.643 1.543.819-1.798c.552-1.212 1.391-1.797 2.577-1.797.968 0 1.944-.3 2.17-.666.24-.386 1.23-.238 2.364.353 2.22 1.158 10.881 1.407 10.881.313 0-.393.321-.714.714-.714.393 0 .715.482.715 1.071 0 .59.173 1.072.385 1.072.775 0 6.436-3.055 7.667-4.138.971-.854 1.463-.918 2.107-.274.462.462 1.775.84 2.918.84 1.86 0 2.03.188 1.63 1.786-.666 2.652 1.833 2.353 6.129-.734 2.508-1.802 3.826-2.34 4.628-1.892 1.012.567 1.01.67-.03 1.068-.631.243-1.149.915-1.149 1.493 0 1.519-.999 1.937-5.572 2.333-3.28.284-4.649.826-7.048 2.792-2.07 1.696-3.705 2.44-5.364 2.44-1.572 0-2.676.464-3.235 1.359-.467.747-2.447 1.89-4.4 2.538-3.587 1.191-9.463 5.73-10.904 8.423-.625 1.168-.542 1.595.414 2.13.884.495 1.077 1.213.74 2.75-.449 2.04-.403 2.078 2.422 1.967 1.583-.062 3.296.226 3.806.641 2.188 1.78 6.463 3.763 8.11 3.763 1.744 0 1.759.046.692 2.108-2.133 4.126-.926 7.147 3.251 8.136 1.582.374 2.008.084 3.036-2.071.657-1.379 1.195-3.067 1.195-3.752 0-1.93 2.066-4.42 3.667-4.42.794 0 2.423-.98 3.62-2.178 1.893-1.892 2.128-2.547 1.799-5.002-.29-2.161-.101-2.98.803-3.48.65-.359 1.682-2.045 2.292-3.747l1.109-3.094 3.657.094c3.846.1 8.056 1.543 8.048 2.76-.003.394-.643 1.682-1.423 2.86-.781 1.18-1.422 2.34-1.424 2.582-.003.241 1.467.64 3.267.887 3.435.471 5.235-.113 7.942-2.577l1.57-1.43.372 1.698c.634 2.898.656 4.506.081 5.831-.67 1.549.968 3.542 4.583 5.575 3.294 1.853 4.622 4.462 2.99 5.873-.642.555-2.271 1.217-3.62 1.472-1.35.255-3.07 1.022-3.825 1.705-1.072.97-2.799 1.263-7.904 1.34-6.235.092-6.776.232-11.89 3.052-5.05 2.786-7.857 5.133-7.857 6.572 0 1.022 3.319.729 4.235-.375 1.908-2.299 10.986-5.367 9.694-3.276-.243.393-1.25.714-2.237.714h-1.795l1.48 1.882c1.507 1.916 2.041 4.263.795 3.493-.378-.233-2.619.552-4.98 1.744-2.362 1.192-4.978 2.167-5.813 2.167-1.808 0-5.664 3.896-5.664 5.723 0 1-.786 1.394-3.526 1.77-2.627.362-3.427.743-3.138 1.496.227.593-.052 1.011-.677 1.011-.585 0-1.239.667-1.452 1.482-.213.815-1.054 1.656-1.869 1.869-.815.213-1.481.706-1.481 1.096 0 .39-.764.516-1.698.282-1.461-.367-1.76-.115-2.143 1.797-.245 1.223-.445 3.313-.445 4.644 0 2.166-.43 2.692-4.107 5.03-2.26 1.436-4.21 2.866-4.336 3.178-.126.312-1.34 1.254-2.696 2.093-3.903 2.411-4.772 4.789-3.942 10.78.466 3.359.459 5.68-.02 6.935l-.72 1.886-.993-1.786c-.546-.982-1.004-3.173-1.018-4.869-.032-3.947-1.066-5.845-3.183-5.845-.923 0-2.513-.433-3.532-.962-1.592-.826-3.546-.925-10.358-.524-.616.036-.838.584-.602 1.486.385 1.473-.994 1.904-3.284 1.025-.844-.324-.715-.74.655-2.11 1.305-1.305 1.707-2.482 1.707-4.987 0-3.908-2.063-6.438-5.827-7.144-2.3-.431-2.403-.583-2.158-3.147.371-3.895-2.247-6.82-6.105-6.82H111v-3.16c0-2.726-.36-3.492-2.609-5.553-3.633-3.33-7.33-3.339-10.942-.028-2.109 1.932-2.591 2.892-2.654 5.276-.042 1.602.344 3.699.858 4.66 1.109 2.07 4.354 4.13 6.51 4.13 1.445 0 1.47.095.425 1.588-1.516 2.164-1.396 4.287.368 6.53 1.849 2.35 5.53 2.574 7.448.454.712-.786 2.058-1.429 2.993-1.429 1.46 0 1.596.196.961 1.382-1.469 2.745-.869 5.775 1.641 8.284l2.38 2.38-3.45 1.878c-3.683 2.005-4.882 3.538-4.882 6.244 0 .929-.272 1.995-.604 2.368-.333.373-1.014 2.94-1.514 5.704-.857 4.734-.816 5.244.707 8.785 2.007 4.664 4.48 6.177 8.992 5.5 3.206-.48 6.906-3.352 7.751-6.016.27-.852 1.36-1.48 3.043-1.754 1.442-.234 2.689-.355 2.77-.268.082.086-.785 2.209-1.926 4.717-1.142 2.51-2.076 5.472-2.076 6.585 0 1.625-.246 1.934-1.25 1.567-.687-.25-2.017-1.205-2.954-2.12-2.813-2.746-6.615-2.303-10.253 1.193-1.635 1.571-3.15 2.82-3.365 2.774-.216-.045-1.035-.224-1.82-.397zm-4.464-22.457c4.898-5.2-.065-13.501-7.026-11.754-5.175 1.299-7.025 7.526-3.485 11.733 2.945 3.5 7.226 3.508 10.511.02zm-21.505-26.804c5.53-5.297 1.915-13.83-5.858-13.83-2.867 0-3.776.355-5.618 2.197-1.83 1.831-2.198 2.759-2.198 5.556 0 3.917 1.387 6.255 4.556 7.683 3.036 1.367 6.685.725 9.118-1.606zm65 0c5.53-5.297 1.915-13.83-5.858-13.83-2.867 0-3.776.355-5.618 2.197-1.83 1.831-2.198 2.759-2.198 5.556 0 3.917 1.387 6.255 4.556 7.683 3.036 1.367 6.685.725 9.118-1.606z" color="#000" overflow="visible"/></g><circle cx="75.898" cy="360.744" r="7.5" fill="#ee001d" stroke="#fff"/><circle cx="102.898" cy="351.744" r="7.5" fill="#00ad0b" stroke="#fff"/><circle cx="97.898" cy="388.744" r="6.5" fill="#00ad0b" stroke="#fff"/><circle cx="118.398" cy="417.244" r="6" fill="#00ad0b" stroke="#fff"/><circle cx="348.398" cy="321.244" r="6" fill="#00ad0b" stroke="#fff"/><circle cx="328.398" cy="347.244" r="6" fill="#00ad0b" stroke="#fff"/><circle cx="472.398" cy="380.244" r="6" fill="#00ad0b" stroke="#fff"/><circle cx="506.398" cy="381.244" r="6" fill="#00ad0b" stroke="#fff"/><circle cx="497.398" cy="391.244" r="6" fill="#00ad0b" stroke="#fff"/><circle cx="667.398" cy="544.244" r="6" fill="#00ad0b" stroke="#fff"/><circle cx="518.398" cy="395.244" r="6" fill="#00ad0b" stroke="#fff"/><circle cx="534.398" cy="392.244" r="6" fill="#00ad0b" stroke="#fff"/><circle cx="536.398" cy="372.244" r="6" fill="#00ad0b" stroke="#fff"/><circle cx="486.398" cy="355.244" r="6" fill="#00ad0b" stroke="#fff"/><circle cx="488.398" cy="346.244" r="6" fill="#00ad0b" stroke="#fff"/><circle cx="400.398" cy="379.244" r="6" fill="#00ad0b" stroke="#fff"/><circle cx="399.398" cy="385.244" r="6" fill="#00ad0b" stroke="#fff"/><circle cx="355.398" cy="430.244" r="6" fill="#00ad0b" stroke="#fff"/><circle cx="125.398" cy="420.244" r="5" fill="#00ad0b" stroke="#fff"/><circle cx="146.398" cy="460.244" r="5" fill="#00ad0b" stroke="#fff"/><circle cx="161.398" cy="406.244" r="5" fill="#00ad0b" stroke="#fff"/><circle cx="151.398" cy="405.244" r="5" fill="#00ad0b" stroke="#fff"/><circle cx="245.398" cy="473.244" r="5" fill="#00ad0b" stroke="#fff"/><circle cx="387.398" cy="350.244" r="5" fill="#00ad0b" stroke="#fff"/><circle cx="423.398" cy="358.244" r="5" fill="#00ad0b" stroke="#fff"/><circle cx="431.398" cy="359.244" r="5" fill="#00ad0b" stroke="#fff"/><circle cx="420.398" cy="366.244" r="5" fill="#00ad0b" stroke="#fff"/><circle cx="438.398" cy="372.244" r="5" fill="#00ad0b" stroke="#fff"/><circle cx="454.398" cy="366.244" r="5" fill="#00ad0b" stroke="#fff"/><circle cx="460.398" cy="378.244" r="5" fill="#00ad0b" stroke="#fff"/><circle cx="489.398" cy="388.244" r="5" fill="#00ad0b" stroke="#fff"/><circle cx="517.398" cy="388.244" r="5" fill="#00ad0b" stroke="#fff"/><circle cx="530.398" cy="385.244" r="5" fill="#00ad0b" stroke="#fff"/><circle cx="661.398" cy="553.244" r="5" fill="#00ad0b" stroke="#fff"/><circle cx="681.398" cy="533.244" r="5" fill="#00ad0b" stroke="#fff"/><circle cx="407.398" cy="357.244" r="5" fill="#00ad0b" stroke="#fff"/><circle cx="325.398" cy="354.244" r="5" fill="#00ad0b" stroke="#fff"/><circle cx="335.398" cy="371.244" r="5" fill="#00ad0b" stroke="#fff"/><circle cx="320.398" cy="349.244" r="5" fill="#00ad0b" stroke="#fff"/><circle cx="217.398" cy="506.244" r="5" fill="#00ad0b" stroke="#fff"/><circle cx="154.398" cy="488.244" r="5" fill="#00ad0b" stroke="#fff"/><circle cx="192.398" cy="535.244" r="5" fill="#00ad0b" stroke="#fff"/><circle cx="131.398" cy="423.244" r="4" fill="#00ad0b" stroke="#fff"/><circle cx="161.398" cy="402.244" r="4" fill="#00ad0b" stroke="#fff"/><circle cx="315.398" cy="373.244" r="4" fill="#00ad0b" stroke="#fff"/><circle cx="347.398" cy="325.244" r="4" fill="#00ad0b" stroke="#fff"/><circle cx="159.398" cy="430.244" r="4" fill="#00ad0b" stroke="#fff"/><circle cx="173.398" cy="544.244" r="4" fill="#00ad0b" stroke="#fff"/><circle cx="165.398" cy="499.244" r="4" fill="#00ad0b" stroke="#fff"/><circle cx="140.898" cy="360.744" r="7.5" fill="#4a4a4a" stroke="#fff"/><circle cx="180.898" cy="475.744" r="8.5" fill="#4a4a4a" stroke="#fff"/><circle cx="337.898" cy="433.744" r="8.5" fill="#4a4a4a" stroke="#fff"/><circle cx="382.898" cy="471.744" r="8.5" fill="#4a4a4a" stroke="#fff"/><circle cx="466.898" cy="372.744" r="8.5" fill="#4a4a4a" stroke="#fff"/><circle cx="497.898" cy="356.744" r="8.5" fill="#4a4a4a" stroke="#fff"/><circle cx="518.398" cy="406.244" r="12" fill="#4a4a4a" stroke="#fff"/><circle cx="581.898" cy="390.744" r="13.5" fill="#4a4a4a" stroke="#fff"/><circle cx="594.398" cy="381.244" r="9" fill="#4a4a4a" stroke="#fff"/><circle cx="120.898" cy="371.744" r="6.5" fill="#4a4a4a" stroke="#fff"/><circle cx="194.898" cy="478.744" r="6.5" fill="#4a4a4a" stroke="#fff"/><circle cx="171.898" cy="530.744" r="6.5" fill="#4a4a4a" stroke="#fff"/><circle cx="217.898" cy="526.744" r="6.5" fill="#4a4a4a" stroke="#fff"/><circle cx="236.898" cy="480.744" r="6.5" fill="#4a4a4a" stroke="#fff"/><circle cx="113.898" cy="360.744" r="5.5" fill="#4a4a4a" stroke="#fff"/><circle cx="106.898" cy="364.744" r="4.5" fill="#ee001d" stroke="#fff"/><circle cx="366.898" cy="326.744" r="4.5" fill="#ee001d" stroke="#fff"/><circle cx="327.898" cy="368.744" r="4.5" fill="#ee001d" stroke="#fff"/><circle cx="339.898" cy="362.744" r="4.5" fill="#ee001d" stroke="#fff"/><circle cx="346.898" cy="363.744" r="4.5" fill="#ee001d" stroke="#fff"/><circle cx="355.898" cy="362.744" r="4.5" fill="#ee001d" stroke="#fff"/><circle cx="322.898" cy="378.744" r="4.5" fill="#ee001d" stroke="#fff"/><circle cx="308.898" cy="415.744" r="4.5" fill="#ee001d" stroke="#fff"/><circle cx="318.898" cy="421.744" r="4.5" fill="#ee001d" stroke="#fff"/><circle cx="334.898" cy="418.744" r="4.5" fill="#ee001d" stroke="#fff"/><circle cx="350.898" cy="423.744" r="4.5" fill="#ee001d" stroke="#fff"/><circle cx="348.898" cy="434.744" r="4.5" fill="#ee001d" stroke="#fff"/><circle cx="426.898" cy="427.744" r="4.5" fill="#ee001d" stroke="#fff"/><circle cx="423.898" cy="436.744" r="4.5" fill="#ee001d" stroke="#fff"/><circle cx="360.898" cy="418.744" r="4.5" fill="#ee001d" stroke="#fff"/><circle cx="316.898" cy="438.744" r="4.5" fill="#ee001d" stroke="#fff"/><circle cx="326.898" cy="436.744" r="4.5" fill="#ee001d" stroke="#fff"/></g></svg>