<svg xmlns="http://www.w3.org/2000/svg" width="16" height="18.251" viewBox="0 0 14.999999 17.11077"><path d="M14.087 11.407h.243c.19 0 .35.07.477.206a.717.717 0 0 1 .193.507c0 .19-.061.38-.185.57a.943.943 0 0 1-.442.386c-.21.085-.509.194-.898.327-.39.134-1.187.31-2.39.528a19.97 19.97 0 0 1-3.585.328c-1.189 0-2.355-.097-3.5-.292-1.146-.195-1.995-.393-2.546-.593l-.827-.285a.927.927 0 0 1-.442-.391A1.073 1.073 0 0 1 0 12.12c0-.2.064-.368.192-.507a.628.628 0 0 1 .478-.206h.243L2.595 8.94l.898-4.662c.143-.733.504-1.398 1.084-1.997A4.17 4.17 0 0 1 6.63 1.097L6.373.642c-.057-.18-.043-.333.043-.457S6.64 0 6.83 0h1.34c.19 0 .328.05.413.15.086.1.1.24.043.42l-.256.527c.79.181 1.473.574 2.054 1.177.579.604.94 1.271 1.083 2.004l.899 4.662 1.682 2.467zM7.5 15.627c-.514 0-1.003-.028-1.468-.085.114.466.303.844.57 1.133.266.29.565.436.898.436.332 0 .632-.145.899-.436.265-.29.45-.667.556-1.133-.457.057-.942.085-1.455.085z" fill="#ee001d"/></svg>