<svg xmlns="http://www.w3.org/2000/svg" width="12.8" height="12.8" viewBox="0 0 12.0002 12.00003"><path d="M8.923 7.469l3.007 3.007a.266.266 0 0 1 0 .36l-1.093 1.094a.268.268 0 0 1-.36 0L7.468 8.922a4.676 4.676 0 0 1-2.617.782c-1.337 0-2.48-.474-3.428-1.423C.474 7.33 0 6.189 0 4.852c0-1.337.475-2.48 1.424-3.428C2.372.474 3.515 0 4.852 0c1.337 0 2.48.475 3.429 1.424.949.949 1.424 2.091 1.424 3.428 0 .95-.261 1.821-.782 2.617 0 0 .52-.796 0 0zM2.506 2.516c-.648.649-.972 1.427-.972 2.336 0 .91.324 1.688.972 2.336.649.648 1.43.972 2.346.972.916 0 1.696-.322 2.341-.967a3.189 3.189 0 0 0 .967-2.34c0-.916-.322-1.697-.967-2.342a3.189 3.189 0 0 0-2.34-.967c-.916 0-1.698.324-2.347.972z" fill="#9b9b9b"/></svg>