<?xml version="1.0" encoding="UTF-8" standalone="no"?>
<!-- Created with Inkscape (http://www.inkscape.org/) -->

<svg
   xmlns:dc="http://purl.org/dc/elements/1.1/"
   xmlns:cc="http://creativecommons.org/ns#"
   xmlns:rdf="http://www.w3.org/1999/02/22-rdf-syntax-ns#"
   xmlns:svg="http://www.w3.org/2000/svg"
   xmlns="http://www.w3.org/2000/svg"
   xmlns:sodipodi="http://sodipodi.sourceforge.net/DTD/sodipodi-0.dtd"
   xmlns:inkscape="http://www.inkscape.org/namespaces/inkscape"
   width="4.7300444mm"
   height="4.7299118mm"
   viewBox="0 0 16.76 16.75953"
   id="svg3547"
   version="1.1"
   inkscape:version="0.91 r13725"
   sodipodi:docname="sensor.svg">
  <defs
     id="defs3549" />
  <sodipodi:namedview
     id="base"
     pagecolor="#ffffff"
     bordercolor="#666666"
     borderopacity="1.0"
     inkscape:pageopacity="0.0"
     inkscape:pageshadow="2"
     inkscape:zoom="0.35"
     inkscape:cx="109.09429"
     inkscape:cy="59.808335"
     inkscape:document-units="px"
     inkscape:current-layer="layer1"
     showgrid="false"
     inkscape:window-width="1309"
     inkscape:window-height="744"
     inkscape:window-x="57"
     inkscape:window-y="24"
     inkscape:window-maximized="1"
     fit-margin-top="0"
     fit-margin-left="0"
     fit-margin-right="0"
     fit-margin-bottom="0" />
  <metadata
     id="metadata3552">
    <rdf:RDF>
      <cc:Work
         rdf:about="">
        <dc:format>image/svg+xml</dc:format>
        <dc:type
           rdf:resource="http://purl.org/dc/dcmitype/StillImage" />
        <dc:title></dc:title>
      </cc:Work>
    </rdf:RDF>
  </metadata>
  <g
     inkscape:label="Layer 1"
     inkscape:groupmode="layer"
     id="layer1"
     transform="translate(-265.90571,-575.41101)">
    <path
       inkscape:connector-curvature="0"
       style="fill:#646464"
       d="m 270.08212,576.53537 c 1.28372,-0.74989 2.68507,-1.12436 4.20359,-1.12436 1.519,0 2.91988,0.37447 4.20407,1.12436 1.28418,0.75036 2.30121,1.7674 3.05157,3.05158 0.74942,1.28418 1.12436,2.68507 1.12436,4.20406 0,1.51852 -0.37494,2.91988 -1.12436,4.20359 -0.75036,1.28465 -1.76739,2.30122 -3.05157,3.05158 -1.28419,0.74989 -2.68507,1.12436 -4.20407,1.12436 -1.51852,0 -2.91987,-0.37447 -4.20359,-1.12436 -1.28465,-0.75036 -2.30169,-1.76693 -3.05157,-3.05158 -0.74989,-1.28371 -1.12484,-2.68507 -1.12484,-4.20359 0,-1.51899 0.37495,-2.91988 1.12484,-4.20406 0.74988,-1.28418 1.76692,-2.30122 3.05157,-3.05158 0,0 -1.28465,0.75036 0,0 l 0,0 0,0 z m 8.31673,3.1425 c -1.13936,-1.13889 -2.51025,-1.70787 -4.11314,-1.70787 -1.60288,0 -2.9733,0.56898 -4.11266,1.70787 -1.1389,1.13936 -1.70834,2.51025 -1.70834,4.11314 0,1.60289 0.56944,2.97331 1.70834,4.11267 1.13936,1.13889 2.50978,1.70834 4.11266,1.70834 1.60289,0 2.97378,-0.56945 4.11314,-1.70834 1.13843,-1.13936 1.70787,-2.50978 1.70787,-4.11267 0,-1.60289 -0.56944,-2.97378 -1.70787,-4.11314 0,0 1.13843,1.13936 0,0 l 0,0 0,0 z m -6.03941,2.1864 c 0.53476,-0.53383 1.17639,-0.80145 1.92627,-0.80145 0.74989,0 1.39198,0.26762 1.92675,0.80145 0.53383,0.53476 0.80144,1.17685 0.80144,1.92674 0,0.74989 -0.26761,1.39151 -0.80144,1.92627 -0.53477,0.5343 -1.17686,0.80145 -1.92675,0.80145 -0.74988,0 -1.39151,-0.26715 -1.92627,-0.80145 -0.5343,-0.53476 -0.80144,-1.17638 -0.80144,-1.92627 0,-0.74989 0.26714,-1.39198 0.80144,-1.92674 l 0,0 z"
       id="Fill-156" />
  </g>
</svg>
